<?xml version="1.0" encoding="UTF-8"?>
<svg xmlns="http://www.w3.org/2000/svg" version="1.1" viewBox="0 0 612 792">
  <defs>
    <style>
      .cls-1 {
        fill: #fff;
      }
    </style>
  </defs>
  <g>
    <g id="Layer_1">
      <path class="cls-1" d="M312.2,677.7c5.4-.5,15.8-1,26.1-2.3,10.4-1.3,20.8-3.1,31-5.4,49.7-11.2,94.1-33,132.4-67,33.9-30.1,59-66.4,75.3-108.5,19.5-50.7,23.4-103,11.9-156.1-13.4-61.9-44.9-113.6-91.7-155.9-27.9-25.3-60.3-43.4-95.6-56.4-27.9-10.3-56.7-15.8-86.5-16.7-21.9-.7-43.6.7-65.2,4.7-33.1,6.2-64.1,18-93,35-38.6,22.6-69.7,53.4-94.8,90.2-22,32.2-36.4,67.7-43.3,106.2-5.1,28.9-6.1,57.8-2.2,86.8,3.9,28.9,11.9,56.6,24.5,82.9,21.8,45.3,53.8,81.9,95.1,110.1,37.8,25.8,79.4,42.5,124.9,49,15.4,2.2,30.7,3.6,51.2,3.4Z"/>
      <path d="M312.2,677.7c-20.5.2-35.9-1.2-51.2-3.4-45.5-6.5-87.1-23.1-124.9-49-41.3-28.3-73.3-64.8-95.1-110.1-12.7-26.4-20.6-54-24.5-82.9-3.9-29.1-2.9-58,2.2-86.8,6.8-38.5,21.2-74,43.3-106.2,25.1-36.8,56.2-67.6,94.8-90.2,28.9-17,60-28.8,93-35,21.6-4,43.3-5.4,65.2-4.7,29.8.9,58.6,6.4,86.5,16.7,35.3,13,67.7,31.1,95.6,56.4,46.8,42.3,78.2,94,91.7,155.9,11.5,53.1,7.6,105.4-11.9,156.1-16.2,42.1-41.4,78.4-75.3,108.5-38.2,34-82.6,55.8-132.4,67-10.2,2.3-20.6,4-31,5.4-10.3,1.3-20.7,1.9-26.1,2.3ZM281.5,523.1c8.3-4.8,13.4-11.8,15.9-20.8.7-2.6-.6-3.4-2.7-4.3-5.8-2.6-12.1-4.8-16.9-8.6-11.6-9.2-20-20.6-19.6-36.6.3-11.6,5.6-19.9,17-23.3,6.3-1.9,12.9-2.8,19.4-3.5,12.1-1.2,24.2-.8,35.9,2.6,17.8,5.3,22,17.3,18.9,31.5-4.2,18.9-16.4,32.2-35.7,37.7-2.8.8-3.1,2-2.5,4.6,2.2,9,8,15.3,15.4,20.6-3-6-5.9-12-8.9-18,2.8-1.6,4.3-.4,5.3,1.6,3.5,6.8,7,13.7,10.4,20.5.3.5.4,1.3.7,1.5,3.9,1.6,7.9,3.2,12.7,5.1-1.3-9.5-4.1-17.1-8.3-24.1-1.1-1.8-2.4-3-.5-4.7,2.1-1.9,3.3,0,4.5,1.5,6.8,8.6,12.4,17.8,13.2,28.9,2.2.7,4.1,1.2,6,1.9,5.5,1.9,7.1.8,6.7-4.8-.7-10.2-3.9-19.7-9.7-28.2-1.1-1.7-1.2-3.4.6-4.1.8-.3,2.9.7,3.5,1.6,2.5,3.8,5,7.6,6.7,11.7,2.9,7.1,5.2,14.4,7.6,21.3,0,0,.3-.6.4-1.2,1.5-12.2-1.2-23.6-6.9-34.4-1.1-2-1.6-3.8.6-5.3,2.2-1.5,4-1,5.4,1.2,1.5,2.4,3.2,4.7,4.4,7.3,10.6,24.2,9.7,48.2-1.9,71.9-1.3,2.6-2.8,5-4.2,7.5l.9.7c2.3-2.4,4.9-4.6,6.9-7.2,12.4-16.2,19.6-34.5,21.5-54.7,1.6-17-2.5-32.4-15.2-44.7-1.8-1.7-2-3.7-.2-4.8,1.3-.8,4.3-1,5.2,0,3.8,3.8,7.9,7.6,10.6,12.2,7.9,13.5,10.4,28,8,43.6-2.5,16-5.6,31.6-14.1,45.7,0,0,.2.3.3.6.8-.7,1.7-1.3,2.5-2,1-1,2-2,3-3,9-9.3,14.6-20.7,19.4-32.4,6.5-15.8,6.7-32.4,3.4-49.1-.2-1.3.3-2.7.5-3.7-1-1.5-2.2-2.8-3-4.3-3.5-6.3-6.4-12.9-10.4-18.9-4.6-6.8-10.5-12.5-18.5-15.4-4.9-1.8-6.5-3.2-5.5-5.8,1.1-2.8,3.6-3.1,8.2-1.2,12.2,4.9,21,13.9,28.8,24,1.7,2.2,3.3,4.3,5,6.5.5-.2.9-.4,1.4-.6-.4-1.9-.6-3.9-1.4-5.7-3.4-8.1-8.4-15.2-15.8-20-7.1-4.6-14.7-8.5-22-12.9-.8-.5-1.3-1.7-1.9-2.5,1-.2,2.2-.7,3.1-.4,5.3,1.9,10.6,3.9,15.8,6.2,3.3,1.5,6.4,3.5,9.6,5.3-.7-2-1.6-3.7-3-5.1-7.7-8-16.5-14.5-26.5-19.3-3.7-1.8-7.8-2.8-11.7-4.1-2.7-.9-3.7-3-3.5-5.5.2-2.6,2.2-3.1,4.4-2.9,2.3.2,4.7.3,7,.7,2.5.4,5,1.1,8.5,1.8-1.5-1.8-2.2-2.9-3.2-3.7-4.5-3.6-8.8-7.5-13.7-10.7-10.1-6.5-21-11.3-33.3-11.9-2.2-.1-4.6,0-4.6-3,0-3,2.4-3.7,4.7-3.7,4.1.1,8.3.2,12.3,1.2,6,1.5,11.7,3.8,17.2,5.7-6.5-7.8-24.8-18.7-36.2-17.8-3.9.3-5.8-1.4-6.2-4.3-.3-2.8,2.5-7.9,4.9-8.1,2.8-.2,2.9-1.8,3.4-3.9,1.7-7.4,3-15.2,5.9-22.1,6.6-15.9,25-17.2,35.6-9.2,7.3,5.5,10,13.9,13.5,21.7.3.6-.2,2.1-.7,2.4-.9.5-2.4.9-3.2.5-2.2-1.1-4.1-2.7-6.3-4.2-2.2,8-7.1,13.4-15.6,14.1-8.3.7-14.2-3.5-18.6-11.6-.7,4.8-1,8.5-1.8,12-.5,2.2.3,2.7,2.1,3.5,6.1,2.6,12.5,4.8,17.9,8.4,19.5,12.9,33.6,30.6,44.1,51.3.5,1,1,2,1.6,3.2.3-.5.5-.7.5-.9-.2-1-.4-2.1-.6-3.1-3.3-14.9-7-29.7-14.8-43-.6-1,0-2.7,0-4,1.3.6,3.1.8,3.7,1.8,6.5,10.2,12.3,20.7,14.9,32.7.3,1.3.7,2.5,1.1,3.8.6-3,.9-5.9.5-8.7-1.5-11.4-5.1-22-11.2-31.9-.5-.8.1-2.4.2-3.6,1.3.2,2.7,0,3.7.6,1,.6,1.8,1.9,2.3,3.1,3.8,8.1,7.6,16.2,11.3,24.4.5,1.1.9,2.2,1.5,3.9,2.7-3.3,2.1-6.4,1.3-9-2.2-6.8-4.8-13.5-7.4-20.2-.7-1.8-1.9-3.9.8-4.7,2.8-.9,2.8-2.7,2.1-4.6-2.1-5.2-4.4-10.4-6.7-15.5-.7-1.6-2-3.4.2-4.7,2.2-1.3,3.1.7,4,2.2,3.5,5.8,6.9,11.6,10.3,17.4.6.9,1.3,1.8,2,2.7.4,0,.8-.2,1.1-.3,0-2.6.7-5.4-.1-7.6-2.7-6.8-6.1-13.2-9.1-19.9-2.7-5.9-5.3-11.8-7.6-17.9-.5-1.2.8-3.1,1.3-4.6,1.3.8,2.9,1.3,3.8,2.3,2.3,2.5,4.1,5.5,6.4,8,2.1,2.3,3.8,1.8,4.1-1.3.3-2.9.3-5.9-.3-8.8-1.7-8.1-6.6-14.3-12.3-19.9-1.8-1.7-3.6-3.4-5-5.4-.6-.9-.5-3.6-.3-3.6,2.8-.7,2-3,1.5-4.3-.9-2.5-2.4-4.8-3.8-7.1-.8-1.3-2.9-2.6-.9-4.1.8-.6,3.1,0,4.2.8,1.5,1,2.8,2.6,3.9,4,1.3,1.6,2.4,3.5,3.8,5.2.8.9,1.9,1.4,2.9,2.1.5-1.2,1.6-2.5,1.4-3.6-.4-2.6-1.1-5.4-2.3-7.6-1.6-2.8-3.8-5.4-6-7.9-10.3-11.9-23.3-17.6-39-17.7-1,0-2.8-1.3-2.8-2.1-.1-2,1.2-2.5,3.3-2.4,9.4.6,18.7.1,27.1-5,5.1-3.1,8.9-7.4,9.3-13.9.2-4.3-1.8-6.4-6-5.6-3.1.5-6.2,1.7-8.9,3.2-10.1,5.6-21,9-32.3,11.5-2.3.5-5.3,1.1-5.7-2-.1-.9,3.1-2.4,4.9-3.5.4-.3,1.2.1,1.7,0,.6-.2,1.3-.5,1.8-.9,1.5-1.2,3.1-2.4,4.5-3.8,1.6-1.5,3.5-2.9,4.7-4.7,1.8-2.7,1-5.4-2.1-6.1-2.6-.5-5.7-.4-8.2.5-3.3,1.2-6.1,3.5-9.2,5.3-5.8,3.4-11.6,7-18.6,7.3-1.3,0-2.6-1-4-1.6.6-1.2.9-2.7,1.8-3.4,7.6-5.4,10.6-13.4,12.8-21.8.2-.7,0-1.5,0-1.3-2.4.9-4.7,1.8-7,2.8-3.1,1.3-6.8,2-9.2,4.1-6.7,5.9-12.9,12.4-19.4,18.6-1.1,1-2.6,1.5-3.9,2.3-.8-1.4-1.9-2.8-2.3-4.3-1.4-6.3-2.4-12.7-4-19-.9-3.6-3.7-6.1-7.6-6.6-3-.4-6.7,2.9-8.3,6.8-.2.5-.5,1.1-.6,1.7-1,5.8-1.9,11.6-3.1,17.4-.3,1.5-1.4,3.1-2.6,4-.5.3-2.6-1-3.5-1.9-6.1-5.9-11.7-12.4-18.1-17.9-3.2-2.7-7.8-3.7-11.7-5.4-1.9-.8-3.9-1.5-6-2.4,1.9,8.5,4.6,17,12.7,22.6,1,.7,1.4,2.4,2.1,3.6-1.3.5-2.8,1.7-4,1.5-3.8-.7-7.7-1.6-11.1-3.2-4.8-2.3-9.1-5.5-13.8-8-2.1-1.2-4.5-2.2-6.9-2.5-2.7-.4-6.2.1-6.7,3.1-.3,2,1.2,5.2,2.9,6.5,3.6,2.9,7.9,4.8,11.9,7.3,1.2.7,2,1.9,3.1,2.9-1.4.7-2.7,1.5-4.1,2-.7.2-1.6-.2-2.4-.3-10.9-2.1-21.2-5.5-30.9-11-2.7-1.6-5.8-2.8-8.9-3.3-4.5-.8-6.4,1.1-6.2,5.7.2,6.7,4.5,10.8,9.7,13.9,8.2,4.9,17.3,5.5,26.6,4.8,1,0,2.2.6,3,1.2.4.3.3,1.9,0,2.2-.8.6-1.9.9-3,1.1-.7.1-1.6-.3-2.3-.2-16.3,1.8-29.9,8.6-39.6,22.2-2.3,3.2-3.8,7-5.2,10.7-.4,1.1,1,2.9,1.5,4.3,1.1-.8,2.4-1.5,3.3-2.5,2.9-3.1,5.5-6.4,8.5-9.5.6-.6,2.1-.2,3.1-.3,0,1.1.1,2.3-.3,3.1-1,1.7-2.6,3.2-3.4,4.9-1.1,2.5-2.6,5.1.7,7.5.6.4.3,3-.3,3.9-1.3,1.9-3.1,3.5-4.9,5.1-6.1,5.6-11.1,12-12.7,20.4-.5,2.6-.6,5.4-.3,8.1.4,3.3,2.1,3.9,4.3,1.5,2.3-2.5,4.1-5.5,6.4-8,.9-1,2.5-1.5,3.8-2.2.4,1.6,1.5,3.3,1.2,4.7-1,3.7-2.4,7.4-4.1,10.9-3.4,6.9-7.3,13.5-10.5,20.5-1.5,3.4-2,7.2-2.7,10.9-.2,1,.6,2.1,1.2,4.2,1.9-2.9,3.2-4.8,4.4-6.8,3-5,5.9-10,9-14.9.5-.8,1.8-1,2.8-1.5.4,1.1,1.1,2.3,1,3.3-.1,1.2-1.2,2.3-1.7,3.5-1.7,4.1-3.6,8.2-5,12.5-.5,1.5,0,4.5.8,4.9,3.5,1.5,2.5,3.4,1.2,5.6-3.7,6.7-6.4,13.7-7,21.4-.2,2.3.2,4.6.4,6.9.4,0,.8,0,1.2,0,.6-1.6,1.2-3.2,1.7-4.9,3.1-8.8,6.2-17.7,12.1-25.1,1.2-1.5,2.5-3.1,4.7-1.5,2.4,1.7.9,3.2-.1,4.8-7.1,11.5-10.8,24.1-11.3,37.6,0,.7.3,1.3.5,2.2.4-.3.6-.4.6-.5.2-.5.4-1.1.5-1.6,2.8-12.3,7.8-23.8,15-34.2,1-1.5,2-3.6,4.4-2.1,2.3,1.4.4,3-.2,4.2-7.6,13.5-11.4,28.2-14.8,43.1-.2.9-.2,1.8-.3,3.4.7-.9,1.1-1.2,1.3-1.6,14.1-27.6,32.8-50.5,63.1-61.5.6-.2,1.4-1.2,1.3-1.7-.4-4-1-8.1-1.6-12.6-11.9,16.6-30.9,12.8-34.7-3.3-2,1.4-3.9,2.9-6,4-.8.4-2.5.2-3.1-.4-.6-.6-.8-2.2-.5-3.1,3.1-7.2,6.3-14.4,12.1-20.2,6.7-6.7,21.7-7.1,28.9-1.9,5.9,4.2,9,10.2,10.8,16.9,1.7,6.2,2.8,12.6,4.1,19.1,3.5-.5,5.1,1.2,6.2,4.7,1.4,4.7-.3,7.4-5.2,8-5.2.7-10.7,1.2-15.4,3.5-6.6,3.2-12.5,7.9-18.7,11.9-1.1.7-1.9,1.7-2.9,2.6,1.2.3,1.9,0,2.6-.3,6.4-2.2,12.8-4.8,19.4-6.5,3.2-.8,7,0,10.4.4.8.1,2,2.3,1.8,3.2-.3,1.1-1.9,2.5-3,2.6-17.9,1.3-32.7,9.4-46,20.8-1.7,1.5-3.1,3.4-4.6,5.1,1.4.4,2.2,0,3.1,0,4-.7,8.1-1.7,12.2-2.1,3.6-.3,5.3,2.2,3.7,5.5-.7,1.5-2.4,3-4,3.5-14.2,4-25.6,12.5-36.3,22.1-1.8,1.6-3.1,3.6-4.7,5.4.2.3.5.6.7.9,8.8-5.5,17.7-10.8,28.4-11.7-.9,1.4-2,2.4-3.3,3.1-4.5,2.6-9,5.1-13.5,7.7-10.8,6.2-18.9,14.9-23.7,26.4-.6,1.3-.4,3-.6,4.5.4.1.8.2,1.3.3,3.2-3.9,6.4-7.8,9.7-11.6,7.3-8.5,15.7-15.7,26.4-19.7,2.7-1,5.2-.8,6.3,2,1,2.9-1.5,3.9-3.7,5-3.6,1.9-7.5,3.6-10.7,6.1-12.3,9.9-19.5,23-22.8,38.2-3.7,17.3-1.1,34.3,4,51.2.7-.3,1.2-.6,1.7-.8,4.7,14.5,16,31.6,22.7,34-6.1-10-9.5-20.8-11.7-32-3.1-15.1-4.9-30.1.3-45.1,3.3-9.5,7.7-18.2,16.2-24.4,2-1.5,3.7-1.5,5.3.2,1.7,1.8.7,3-.6,4.8-3.9,5.3-8.1,10.6-10.8,16.5-5.7,12.6-5,26-2.3,39.3,3.5,16.8,10.4,32.1,21.3,45.4,1.5,1.8,3.4,3.2,5.1,4.9.3-1.2,0-1.8-.3-2.4-10.8-17.1-13.7-35.8-11.1-55.5,1.4-10.5,4.4-20.5,11.1-29.2,1.5-1.9,3-2.1,4.8-.9,1.9,1.3,2.2,2.7,1,4.8-5.7,9.9-7.9,20.6-7.6,31.9,0,1.7.6,3.5.9,5.2h.9c.7-8.8,3.1-17.1,7.3-24.7,2-3.7,4.4-7.2,6.9-10.7.4-.6,2.4-.9,2.9-.4.7.7,1.1,2.1,1,3.2,0,.9-1.1,1.8-1.6,2.7-4.5,7.4-7.6,15.3-8.4,23.8-.9,9-.6,9.1,7.9,6.7.6-.2,1.1-.5,1.7-.6,2.3-.3,2.9-1.4,3.2-3.7,1.4-10.6,7-19.2,14.1-26.8.5-.6,2.4-.4,3.3.1.6.4.8,2.1.4,2.9-2.2,4.7-4.9,9.2-6.9,14.1-1.3,3.2-1.8,6.7-2.6,10.1.3.3.6.5.9.8,3.4-1.2,6.8-2.3,10.1-3.7,1.1-.5,2-1.9,2.7-3,3.8-6.9,7.4-13.9,11.4-20.7.4-.8,2.4-.7,3.7-1-.1,1.1,0,2.4-.5,3.4-2.5,5-5.1,10-7.6,15ZM162.4,264.4c-5.5.2-9.8,2.3-13.8,5.1-6.8,4.7-12.7,10.3-16.6,17.6-.4.8,0,2.1,0,3.1,1-.2,2.1-.2,2.8-.7,1.6-1.1,3.1-2.6,4.6-3.9,2.2-1.8,4.5-1.4,5.1,1.3.4,1.7,0,4.2-1.2,5.4-4.4,4.8-9.1,9.3-13.8,13.8-2.1,2-4.7,3.5-6.3,5.8-8.8,12.3-17.4,24.7-26,37.1-2.6,3.7-5.1,7.4-7.3,11.3-2.6,4.7-4.9,9.6-4.1,15.1.2,1.1,1,2.7,1.9,3,.8.3,2.5-.5,3.2-1.4,2.9-3.5,5.5-7.4,8.5-10.9,1-1.1,3.1-2.2,4.2-1.9,1.2.4,2.8,2.5,2.8,3.7-.1,2.1-1.1,4.3-2.3,6.1-9,13.3-12.5,28.1-11.9,44,0,1.9-.5,4.7,2.6,5,3.2.3,2.2-2.7,2.9-4.3,2.8-6.7,5.5-13.5,8.3-20.2,1-2.2,3.2-3,4.9-1.3.9.9,1,3.3.5,4.7-4.2,10.5-6.9,21.3-8.4,32.5-.6,4.6-.7,9.2-1,13.8,3.7-4.9,6.4-10,9.5-14.8,2-3.1,4.6-6,7.2-8.7,1.8-1.9,4.3-2.3,6.3-.1,2,2.2.7,4.1-.9,5.9-1.3,1.5-2.7,3-3.7,4.7-12.4,21.5-15.3,44.1-7,67.8.8,2.3,2.2,4.5,3.4,7,.8-9,1.4-17.4,2.3-25.8,1.4-12.3,4.9-24,10.7-35,1-1.9,2.6-2.8,4.3-1.6.8.6,1.2,2.7.8,3.8-5.7,14.2-7.3,29-7.3,44.1,0,10.1.5,20.1,3.6,29.8,1.8,5.6,5,10.1,9.4,13.3-1.5-8.8-3.6-17.5-4.2-26.3-.6-8.3.2-16.7.7-25,0-1.2,1.9-3.2,2.8-3.2,2.2,0,2.7,2,2.7,4.1.1,7-.1,14.1.8,21.1,1.5,10.7,3.4,21.5,9.8,30.8.9,1.3,2,2.5,3.1,3.8-1.4-4.2-3.2-8-3.7-12-.7-6.6-.7-13.2-.6-19.8.2-8.7.6-17.5,1.2-26.2,0-1.1,1.2-2.2,1.9-3.3.3,1.1.9,2.3.9,3.4,0,3.8-.6,7.6-.5,11.3.3,13.3,4,25.8,8,38.4.2.7,1,1.3,1.4,1.9.3-.1.7-.2,1-.3,0-1.3.2-2.7,0-4-.9-5.5-2.3-11-2.7-16.6-.6-8.4-.5-16.9-.7-25.4,0-.8,0-2.1-.3-2.3-2.9-1.2-1.7-3.8-2.1-5.8-.2-1-.4-2-.7-2.9-.8-2-2.4-4.1-2.3-6,.4-4.8.9-9.7,2.6-14.1,4.8-12.3,10.3-24.4,15.5-36.5.3-.8.5-1.6.8-2.3-.5-.4-1.1-.9-1.6-1.3-.5,1-.9,2.2-1.6,3.1-1.5,2-3.1,3.9-4.9,5.6-.7.6-2.6,1.1-2.8.7-.8-1-1.5-2.5-1.3-3.5.3-1.4,1.4-2.7,2.4-3.8,5-5.5,6.4-12.2,7.3-19.2,0-.6-.3-1.3-.7-2.7-.7,1.3-1,1.9-1.3,2.5-2.8,4.9-8.1,7.1-11.8,4.8-3.6-2.1-4-6.9-1-12,0-.1.2-.2.2-.3,1-3.1,2.3-6.1,2.9-9.3,1.1-5.2,1.9-10.4,2.8-15.7.2-1.4.6-2.7.8-4.1-4.6-1.4-9-3-10-7.9-.8-3.8-1.3-8.2-.3-11.8,2-7.3,5.2-14.3,8-21.7-3.5-1.4-5.7-4.5-6.4-8.6-.5-2.8-.4-5.9,0-8.7,1.4-10.2,3.6-20,11.1-28-6-3.5-6-9.3-5.7-15.4ZM505.8,448.4c0-1.3,0-2.8,0-4.3-.9-14.3-3.6-28.1-9.2-41.3-.9-2.1-1.6-4.5,1.3-5.7,2.8-1.1,4.2.6,5.1,2.9,2.6,6.9,5.1,13.9,7.7,20.8.4,1,1.5,1.8,2.3,2.6.8-.9,2.4-1.8,2.4-2.7,0-2.7-.4-5.4-.8-8.2-.2-1.4-.5-2.7-.7-4.1,3.2,0,1.5-2.3,1.4-3.3-.2-3-.8-6.1-1.5-9-1.9-8.3-5.6-15.7-10.4-22.7-1.1-1.6-1.5-4-1.3-5.9.1-1.2,1.8-2.8,3.1-3.1,1-.3,2.8.8,3.7,1.8,2.3,2.8,4.1,6.1,6.5,8.8,1.4,1.6,4.1,3.9,5.3,3.4,2.9-1.1,1.9-4.4,1.5-6.9-1.4-8.2-5.8-14.9-10.6-21.4-3.3-4.4-7.2-8.5-10.3-13.1-6.1-9-11.7-18.3-17.6-27.4-.6-.9-1.3-1.8-2.2-2.2-7.7-3.5-11.6-11.2-17.6-16.6-1.8-1.7-.8-4.1.9-5.6,1.8-1.7,3.5-.6,5,.7,1.5,1.3,3,2.7,4.6,3.9.4.3,1.4.5,1.8.2.4-.3.6-1.2.5-1.8-.1-.8-.6-1.5-1-2.2-5.3-8.4-12.3-15-21.2-19.4-2.5-1.3-5.4-1.9-8.2-2.9q-.8,10.3-5.6,16.2c7.1,7.6,9.1,17.3,10.7,27.2,1.2,7.3.1,13.6-6.9,17.9.7,1.5,1.6,3,2.2,4.5,2.2,5.8,5.5,11.5,6.3,17.6,1.6,10.9.6,16-9.4,19-.2,0-.3.4-.4.6.7,3.9,1.6,7.8,2.2,11.7.5,2.9.2,6,1,8.8,1.1,3.9,3,7.6,4.5,11.4,1.4,3.5.6,6.9-1.8,8.7-2.3,1.7-6.3,1.5-8.9-.8-1.3-1.1-2.2-2.7-3.3-4.1-.5-.6-.8-1.2-1.3-1.9-.4.4-.6.5-.7.7-.1.6-.2,1.2-.2,1.7.5,5.9,1.7,11.7,5.3,16.6,1.3,1.7,2.9,3.3,3.7,5.2.5,1.2-.3,2.9-.5,4.4-1.2-.3-2.7-.3-3.5-1-1.9-1.8-3.4-3.9-5.1-5.9-.6-.6-1.4-1-2.1-1.5-.3,1.2-.1,1.9.1,2.5,5.6,12.9,11.2,25.7,16.7,38.7,1.1,2.6,1.8,5.4,2.1,8.2.5,3.8,0,7.3-2.5,11-1.8,2.7-3.1,7.2-3,10.1.8,12.6,0,24.9-2.6,37.3-.7,3-.5,6.1-.8,9.1.5,0,1.1.2,1.6.2,3.8-8.6,5.9-17.9,7.2-27.2,1.4-9.2,1.1-18.7,1.6-28,.3,0,.7-.1,1-.2.4,1.7,1.1,3.4,1.1,5.1.5,12.2,1.1,24.3,1.2,36.5,0,4.4-.6,8.9-1.5,13.3-.5,2.2-2.2,4.2-3.4,6.3,4-2.9,6.6-6.9,8-11.4,4.5-14.1,8-28.4,6.5-43.4-.1-1.4,1.4-3,2.2-4.5,1.1,1.2,3,2.2,3.1,3.5,1.7,16.2,1.9,32.3-3.5,48-.3.8-.4,1.7-.7,3.1,1-.6,1.6-.9,2-1.2,6.2-5.1,9.2-11.9,10.3-19.6,3-22.3,2.1-44.3-5.8-65.6-.6-1.7-1.8-3.7.8-4.8,2.6-1.1,3.5.7,4.4,2.6,7.5,14.7,10.9,30.4,11.8,46.7.2,4.1,0,8.3,0,12.4.3,0,.6.1.9.2.7-1.3,1.5-2.6,2-4,10.3-27.2,6.9-52.5-10.3-76-.7-.9-.8-2.8-.3-3.8.5-1,2.4-2.3,3.2-2,2.1.7,4.6,1.7,5.8,3.4,4.9,6.8,9.3,13.9,14.1,21.2ZM319.6,593.7c.6-1.3.9-1.7,1-2.1,3.1-8.6,2.8-17.4,1.3-26.2-.2-1.5.6-3.1,1-4.7,1.2,1.1,2.8,2.1,3.5,3.4,4.3,8.3,4.9,17.2,3.2,26.2-1.1,5.8-3.3,11.4-5,17.1,3.6-2.8,7.4-5.7,10.1-9.4,10-14.2,11.2-29.2,3.4-44.8-.4-.8-.4-2.6.1-3,.7-.5,2.3-.5,3.1,0,1.1.7,2.2,1.9,2.7,3.2,2,4.6,3.7,9.3,5.5,13.9.1-.5.5-1.4.5-2.4-.3-5.3-.9-10.5-1.2-15.8-.1-2.3-1.4-2.9-3.4-3.2-11.1-1.3-20.8-6.1-29.2-13.3-4.3-3.6-8.2-7.7-12.5-11.7-.7.8-1.6,2.1-2.7,3.1-4.4,4.1-8.5,8.6-13.3,12.1-6.9,5-14.8,8.3-23.4,9.4-3.5.5-5.6,1.7-5.3,5.8.2,2.5-.7,5.2-.7,7.7,0,2.7.4,5.4.6,8,1.5-2.9,2-5.8,3.2-8.5,1.2-2.8,2.8-5.5,4.6-7.9.6-.8,2.5-.5,3.8-.7-.1,1.1,0,2.2-.4,3.2-.7,2.1-1.9,4-2.6,6.2-2.1,6.9-2.3,14-1.2,21.1,1.7,11.5,7.9,20.1,16.9,26.7-1.5-6.6-3.4-13.1-4.4-19.8-1.3-8.6,0-16.9,4.1-24.7.4-.8,1.7-1.3,2.5-1.9.3,1,1,2,.9,3-.2,5.5-1.1,11.1-.9,16.6.2,4.6,1.4,9.2,2.2,13.9.3,0,.6-.1,1-.2q1.2-7.4,4.5-6.9c0,.9,0,1.8.1,2.8.7,8.4,1.6,16.6,6.9,23.7,2.7,3.6,5.3,4.4,8.1,1,2-2.5,3.8-5.5,4.5-8.6,1.3-5.5,1.6-11.2,2.5-16.8.1-.9,1.1-1.7,1.6-2.5.8.8,1.9,1.5,2.3,2.5.4,1,.3,2.3.4,4.4ZM73.8,275.7c.3.3.5.6.8.9.7-.3,1.4-.5,2-1,10.8-8.4,21.6-16.9,32.4-25.3,13.1-10.2,26.2-20.4,39.3-30.7,6.4-5,12.7-10.2,18.9-15.4,2.6-2.2,5.2-4.5,7.5-7,4.6-5,8.7-10.6,13.7-15.1,9.3-8.4,19-16.3,28.5-24.4.9-.8,1.7-1.6,2.5-2.5-6,1.7-11.8,3-16.2,7.7-3.8,4.1-8.3,7.6-12.6,11.3-6.8,5.7-13.6,11.3-20.5,16.9-24,19.3-48.5,38.2-72,58.1-9.1,7.7-16.2,17.6-24.2,26.6ZM511.4,324.6c3.3-2.4,6.2-4.7,9.3-6.8,6.4-4.5,12.8-8.9,19.3-13.2,1-.6,2.6-.2,4-.2-.2,1.4-.2,2.9-.7,4.1-.4.9-1.5,1.5-2.4,2.1-3.1,2.2-6.2,4.3-9.3,6.5-5.5,4-11,8-16.3,11.8,1.3,1.5,2.6,2.7,3.4,4.1,1.8,3.2,3.7,2.5,6.2.7,7.5-5.3,15.2-10.4,22.9-15.3,2.3-1.4,2.7-2.7,1.8-5.1-4.2-10.7-8.5-21.3-14.3-31.3-1.1-2-2.3-4-3.3-5.8-10.4,7.7-20.4,15-30.4,22.3-4.4,3.2-4.5,3.2-1.3,7.7.1.2.4.2.7.4.4-.3.9-.6,1.4-1,9.3-6.7,18.5-13.5,27.9-20,1-.7,3.3-.9,3.9-.3,1.4,1.6.4,3.2-1.2,4.4-5.5,4-11,8.2-16.5,12.3-4.3,3.2-8.7,6.4-13.3,9.9,1.1,1.2,1.9,2.1,2.6,3,1.4-1,2.4-1.9,3.4-2.6,7.2-5,14.3-10,21.6-14.9.9-.6,2.9-1,3.4-.5,1.4,1.3,1.6,3.1-.3,4.5-1.6,1.2-3.2,2.4-4.9,3.6-6.8,5-13.7,10-20.7,15.1,1.1,1.7,2,3.1,3,4.7ZM324.5,460.1l.5.2c2.5-4.1,5-8.2,7.6-12.2.4.2.7.4,1.1.6-.5,1.8-1,3.6-1.5,5.4,1.4-.9,2.3-2,3.1-3.1.8-1.1,1.6-2.2,2.4-3.4-2.3-5.7-4.9-7.6-12.2-9.3-12.1-2.8-24.3-3.2-36.6-1.2-4.7.8-9.4,2.2-13.8,4.1-3.8,1.6-5.6,6.1-4.7,10,1.2-1,2.4-2,3.5-2.9.2.2.5.4.7.7-1.5,2.3-2.9,4.7-4.4,7,.3.2.6.4.8.6,2.8-3.2,5.6-6.3,8.4-9.5.4.3.7.6,1.1.9-2.2,3.5-4.5,7-7,11.1,5.6-2.9,6.6-9.7,13.3-11.9-2.8,4.8-5.1,8.7-7.3,12.5,4-3.8,6.2-9.1,11.4-11.7-2.3,4-4.7,7.9-7,11.9.3.2.5.3.8.5,3.6-4.1,6.1-9.1,10.4-12.6.3.2.6.4.9.7-1.7,4.1-3.5,8.3-5.2,12.4.3.2.7.3,1,.5,2.2-3.9,4.4-7.7,6.6-11.6.8-1.4,1.4-3.2,3.7-1.6-1.8,4.1-3.6,8.2-5.4,12.3.3.1.6.3,1,.4,2-3.8,4.1-7.6,6.1-11.4v2.9c1.4-1.9,2.6-3.6,3.9-5.3.3.2.7.5,1,.7-4,6.8-7.9,13.6-11.9,20.5.2.1.4.2.6.4,4.9-7.1,9.8-14.3,14.8-21.4.4.3.8.5,1.1.8-3.8,6.8-7.7,13.6-11.5,20.3.3.2.5.3.8.5,4.6-7,9.1-13.9,13.7-20.9.5.3,1,.5,1.4.8-3.1,5.9-6.2,11.8-9.7,18.5,6.3-5.7,9.6-12.3,11.6-19.7.4.2.7.4,1.1.6-.7,1.9-1.3,3.8-2,5.7.2.1.5.2.7.4,1.4-2.2,2.8-4.3,4.3-6.5.3.2.6.4.9.6-3.4,6-6.9,12-10.3,18.1.4.2.7.4,1.1.6,4.1-6.3,8.3-12.7,12.4-19l1.1.5c-1.5,3.8-2.9,7.6-4.4,11.4ZM50.9,345.5c.3.2.5.3.8.5,1.2-1,2.5-2.1,3.7-3.1,9.7-8.1,19.3-16.3,29.1-24.2,8.6-7,17.4-13.7,26.2-20.5,2.3-1.8,3.5-3.8,4.1-6.9.7-3.8,3-7.3,4.8-10.8.6-1.2,1.6-2.2,2.9-3.8-1,.3-1.4.4-1.6.5-21.8,16.2-43.6,32.4-63.3,51.1-5.1,4.9-5.3,11.1-6.7,17.2ZM171.5,209c-5.5,4.6-10.6,9.2-16.1,13.5-15.7,12.2-31.4,24.2-47.2,36.2-10.8,8.2-21.6,16.5-32.6,24.4-4.5,3.2-6.6,7.5-9.1,12.9,12.6-9.5,24.5-18.5,36.4-27.4,8.1-6.1,16.2-12.3,24.4-18.2,9.3-6.8,19.2-13,26.7-21.9,5.3-6.3,11.3-10.6,20.3-10.1-.9-3.3-1.8-6.3-2.7-9.3ZM104.7,235.5c28.6-22.6,57.2-45.2,85.8-67.8-.2-.3-.5-.6-.7-.9-33.3,16.7-61.6,39.7-85.1,68.8ZM58.3,317.4c1.5-1,2.5-1.6,3.3-2.3,7-5.5,13.9-11.2,21-16.6,14-10.8,27.9-21.8,42.2-32.2,4.2-3.1,5.5-6.8,6.4-11.8-2.9,2.1-5.5,3.8-7.9,5.6-12.6,9.4-25.2,18.7-37.6,28.3-7.3,5.6-14.4,11.5-21.3,17.6-3.2,2.8-5.7,6.2-6.1,11.5ZM480.4,265.6c1.2-.9,2.4-1.8,3.7-2.7,7.4-5.1,14.7-10.3,22.1-15.3.8-.5,2.1-.2,3.1-.2,0,1.2.4,2.6,0,3.6-.5,1.1-1.7,1.9-2.8,2.7-3.8,2.8-7.7,5.5-11.5,8.3-4,3-8,6.1-12.1,9.2,1.5,1.8,2.6,3,3.6,4.3,10.7-7.5,21.1-14.8,32.2-22.6-3.8-4.9-7.4-9.5-10.8-13.9-9.3,6.9-17.7,13.4-26.4,19.5-3.1,2.2-3.8,4-1.2,7ZM248.3,146.2c-3.2.5-5.3.7-7.3,1.2-2.6.7-5.5,1-7.6,2.5-3.4,2.5-6.2,5.9-9.4,8.7-7.2,6.4-14.6,12.8-21.9,19.1-3.2,2.8-6.5,5.5-10,8.5,3.1.9,5.5,1.7,8.1,2.2.9.2,2.4,0,3-.7,11.4-10.5,22.6-21.1,33.9-31.6,3.4-3.2,7-6.3,11.1-10ZM107.1,310.4c-.4-.4-.8-.7-1.1-1.1-11,8.7-22,17.5-33.1,26.2-7.5,5.9-14.9,11.8-22.4,17.7-.4.3-.9.8-1,1.3-.7,3.6-1.4,7.2-2.1,10.8,1.3-.2,1.8-.6,2.3-1.1,14.2-12.3,28.6-24.3,42.5-36.9,5.5-5,9.9-11.2,14.8-16.9ZM522.4,263.8c2.5,4.4,0,6.3-2.4,8-7.4,5.5-14.8,11-22.2,16.4-2.5,1.8-4,4.1-3.4,7.9,11.9-8.3,23.4-16.2,35.2-24.5-2.6-4.7-5.3-9.4-8-14.3-10.9,7.8-21.3,15.3-32.1,23.1.8,1.3,1.8,3,2.6,4.5,10.2-7.1,20.1-14.1,30.2-21.1ZM482.2,553l.5.5c.8-.5,1.6-.9,2.3-1.5,14-9.8,28-19.6,42-29.4,6.1-4.2,7.2-11.4,11-17.1-.9,0-1.4.2-1.9.6-10.7,7.9-21.5,15.8-32.1,23.8-5.9,4.5-13.4,7.6-15.7,15.8-.1.5-.8.9-1.1,1.3-1.7,2-3.3,3.9-5,5.9ZM237.6,551.1c1.6,21.6,9.3,39.7,22.7,46.6-8.1-15-11.4-30.8-9.8-48-4.6.5-8.7,1-12.9,1.4ZM371,551.2c-4.6-.6-8.7-1.1-13.5-1.7,3.2,17.4-1.8,32.8-8.5,47.8,15.8-11.2,19.8-27.9,22-46.2ZM453.7,562.3c-2.5-1.6-4.5-1.6-7.1.6-10.9,9.1-21.7,18.2-33.1,26.6-21.9,16.1-44.1,31.7-66.1,47.5-3.4,2.4-6.8,4.8-10.1,7.2,1.7.2,3.5.4,4.6-.4,36.6-28,76.6-51.5,111.9-81.5ZM312.7,141.2c-.1-.3-.3-.5-.4-.8-1.8,0-3.5,0-5.3,0-4.2-.2-7.6.8-10.8,4-4.8,4.7-10.3,8.6-15.5,12.8-5.1,4.2-10.2,8.6-15.4,12.9,2.8,1.8,5.2,3.4,7.1,4.7,2.1-2.2,4.1-4.4,6.3-6.3,1.7-1.4,3.8-2.3,5.5-3.6,7-5.6,13.9-11.3,20.8-17,2.6-2.1,5.1-4.4,7.7-6.5ZM46,389.6c6.2-4.9,12.2-9.8,18.4-14.5,3.5-2.6,6.5-5.2,6.7-10.1,0-1.7.9-3.4,1.6-5,1.8-4,3.8-7.9,5.9-12.4-3.6,3.3-6.9,6-9.9,8.9-8.8,8.3-19,15.3-25.2,26.1q2,1.2,2.6,6.9ZM216.1,183.9c3.8-.7,7.8-2,11.8-2.1,4.8-.2,5.5-.7,7.2-5.3,1.1-3,2.7-6.2,5-8.3,5.8-5.3,12.2-10,18.3-15.1,3.8-3.2,7.5-6.6,11.3-9.9-5.6.1-10.6.5-14.7,4.5-7.4,7.1-15.2,13.8-22.7,20.8-5.5,5.1-10.9,10.3-16.1,15.4ZM166.9,255.5c6.4-6.1,13.2-12.8,20.3-19.6-1.2-.2-2.2-.4-3.3-.4-14-.4-23.9,7.4-33.2,16.4-.6.6-.8,2.3-.4,3.2.2.6,1.7,1,2.7,1,1.3,0,2.5-.5,3.8-.5,3.3,0,6.6,0,10.1,0ZM413.7,623.2c29.4-13.4,55.8-31.2,78.5-54.1-.3-.4-.6-.8-.9-1.2-25.9,18.4-51.8,36.9-77.7,55.3ZM422.8,235.6c6.3,6.5,13,13.3,19.7,20.2,2.2-.1,5.2-.4,8.1-.4,1.4,0,2.8.8,4.1.7,1.2,0,2.3-.7,3.4-1-.4-1.1-.4-2.7-1.2-3.3-4.9-4-9.8-8.2-15.1-11.7-6.2-4.1-13.3-5-19.2-4.5ZM496.8,229.5c2.9,3.5.7,5.2-1.5,6.8-6,4.4-12,8.7-18.1,13-3.1,2.2-3.1,2.6-.1,5.2,9.1-6.2,18.2-12.5,27.6-18.9-2.9-3.4-5.6-6.7-8.5-9.8-.7-.7-2.6-1.2-3.2-.8-8.3,5.5-16.5,11.3-25.1,17.2,1.7,1.6,3,2.8,4.1,3.8,8.5-5.6,16.6-11,24.9-16.5ZM504.8,521.1c11.8-8.5,22.8-17.2,34.6-24.8,6.6-4.2,7.2-10.7,10.2-16.9-13.3,9.9-26.2,19.5-39,29.1-.7.5-1.3,1.3-1.7,2.2-1.4,3.2-2.6,6.6-4.1,10.4ZM357.6,146.1c-3.2-1.1-5.1-1.9-7.1-2.4-1.1-.3-2.5-.7-3.3-.2-3,1.9-5.7,4.2-8.6,6.2-6.6,4.5-13.3,9-19.9,13.5-1.3.9-2.5,2-3.6,3,1.7,1.9,3,3.4,5,5.6,12.3-8.3,24.6-16.7,37.6-25.6ZM295.2,163.9c3.6-.2,8-.5,12.5-.9.8,0,1.6-.8,2.4-1.3,8.5-5.7,17-11.4,25.6-17.1,1-.7,2-1.2,3-1.8-.1-.3-.2-.5-.3-.8-7.2-.4-14.3-.8-21.6-1.2.4,4.4.4,4.4-2.7,7-6.6,5.6-13.2,11.2-18.8,16.1ZM57.5,471.6c1.4-1.2,2.5-2.3,3.7-3.1,6.9-5.2,13.5-10.7,20.8-15.3,3.2-2,4-4,3.5-6.8-2.4-1.1-4.5-2-7-3.2-5.7,4.5-11.7,9.3-17.7,14.1q-6.9,5.5-3.3,14.4ZM435.2,217.1c9.9-6.6,20-13.5,30.4-20.4-2.7-2-5.3-4.1-8.1-5.9-.6-.4-2.1-.3-2.7.1-5.6,3.7-11.2,7.5-16.7,11.4-.7.5-1.3,1.4-1.4,2.2-.6,4.1-1,8.3-1.5,12.7ZM49.7,440.9c8.2-6.6,15.8-12.6,23.2-18.7.8-.7,1.5-2.1,1.6-3.2.2-3.3,0-6.5,0-9.8,0,0-.3,0-.6.2-8.2,6.5-16.5,13.1-24.6,19.7-.7.5-1.1,1.9-1,2.8.3,2.8.8,5.6,1.4,9ZM334,175.8c13.5-8.7,28-15.1,40.7-25.7-3.2-1.1-5.6-2-8.1-2.6-.8-.2-1.9.1-2.5.6-4.1,3-8,6.2-12,9.2-6.4,4.8-13,9.4-19.5,14.2.5,1.5,1,2.8,1.5,4.2ZM375.4,182.8c2.5-.8,5.2-1,7.2-2.3,8.5-5.1,16.8-10.6,25.1-15.9.5-.3,1-.8,1.7-1.4-2.3-1.1-4.3-2.3-6.4-3-1-.3-2.6-.2-3.5.3-7,4.3-13.7,8.9-20.7,12.9-3.6,2-4.9,4.4-3.4,9.3ZM450.5,584.3c.3.4.6.8.9,1.2.4-.1.9-.2,1.3-.5,8.4-5.4,16.8-10.9,25.2-16.4,7.7-5,15-10.8,23.3-14.6,9-4.1,13.9-11.5,19-19.2-23.2,16.5-46.4,32.9-69.7,49.4ZM65.3,496.2c1.1-.5,2.5-.8,3.6-1.7,6.8-4.9,13.5-9.9,20.2-14.9.7-.5,1.5-1.4,1.5-2.1-.1-3.1-.5-6.2-.8-9.5-9.1,7.2-17.9,14.1-26.3,20.8.6,2.6,1.1,4.7,1.8,7.4ZM240.1,639.8c3.1.2,7.1,1.7,9,.3,7.1-5.2,13.6-11.3,20.3-17.1-.8-2.1-1.6-4.2-2.6-6.6-9.3,7.1-19.9,12.4-26.7,23.4ZM78.1,394.5c-2.7-1.5-4.8-1.8-7.4.7-6.8,6.4-14,12.3-21.1,18.3-3.2,2.7-3.7,5-1.8,9.1,8.4-6.5,16.6-13.2,25.2-19.4,3-2.2,4.9-4.6,5.2-8.7ZM69.1,379.2c-.3.1-.7.2-.9.4-7,5.6-14,11.2-21,16.8-.6.5-1.1,1.3-1.1,2-.1,3.2,0,6.4,0,10.4,8.4-7.2,16.1-13.8,23.7-20.5.7-.6,1.2-1.8,1.1-2.6-.3-2.2-1.1-4.2-1.7-6.4ZM533.8,417.2c9.8-6.4,19.4-12.7,29.1-19,.6-.4,1.1-1.3,1.1-2,0-2.5-.2-5-.3-8.1-8.6,6.3-16.4,12.4-24.6,17.8-4.3,2.8-6.3,6-5.3,11.3ZM532.6,403.2c1.4-1,2.8-1.8,4.1-2.8,8.1-5.8,16.1-11.9,24.4-17.5,2.1-1.5,2.9-2.8,2.4-5.1-.3-1.2-.5-2.5-.7-4-1.1.7-2,1.2-2.9,1.9-8.1,5.8-16.2,11.7-24.4,17.5-4.9,3.4-4.9,3.4-3.5,9.3,0,0,.1.2.6.7ZM554.2,462.7c-.7.4-1.2.6-1.6,1-11.7,9.1-23.3,18.2-35,27.2-2.9,2.2-4.3,4.9-4.3,8.9.7-.5,1.1-.8,1.4-1,10.9-8.1,21.5-16.6,32.7-24.3,4.5-3,6.1-6.7,6.7-11.7ZM529.3,347.4c8.1-5.6,16.3-11.2,24.4-16.8.4-.3.8-1.3.6-1.8-.6-2.1-1.4-4.2-2.2-6.5-.9.5-1.6.8-2.3,1.2-6.3,4.4-12.5,8.8-18.8,13.2q-5.9,4.1-1.7,10.6ZM53,455.7c7.9-6.1,15.4-12,22.9-17.9.4-.4.8-1.2.7-1.8-.3-2.3-.8-4.6-1.3-7.3-1.4.9-2.4,1.6-3.4,2.4-4.8,3.7-9.6,7.3-14.3,11-7.7,6.1-6.9,3.4-4.6,13.6ZM474.1,559.8c0-.5-.2-.9-.3-1.4-1.1.1-2.3,0-3.2.4-2,1-3.9,2.3-5.7,3.6-17.1,12.8-34.2,25.7-51.3,38.6-3.4,2.6-6.6,5.4-9.9,8.2.3.3.5.7.8,1,23.2-16.8,46.4-33.6,69.6-50.4ZM393.6,157.1c0-.4,0-.7.1-1.1-4.2-1.3-8.4-2.6-12.7-3.8-.5-.1-1.4.4-2,.9-1.7,1.5-3.3,3.3-5,4.8-2.8,2.3-5.6,4.4-8.2,6.4,2.4,2.3,4.5,4.3,6.7,6.3,7-4.5,14.1-9,21.1-13.5ZM531.9,434.3c9.2-6.6,18.4-13.2,27.8-19.8,4.4-3.1,4.8-3.8,3.4-9.7-7.6,5.3-14.9,10.9-22.7,15.7-5.4,3.3-8.5,7.4-8.4,13.7,0,.1,0,.2,0,0ZM538,384c6.4-4.3,12.9-8.9,19.7-13.1,1.8-1.1,4.4-.9,6.5-1.6,1.3-.4,3.1-1.2,3.3-2.1.4-1.7-.9-2.8-2.9-2.4-2.3.5-2.9-.9-3.1-2.8-.1-.9-.3-1.8-.6-2.9-5.2,4-10.1,8-15.1,11.6-4.7,3.4-9.1,6.9-7.8,13.4ZM247.8,611.8c-8.4,7.4-16.5,14.5-25,22.1,2.1.7,3.3,1,4.3,1.5,2.6,1.1,4.6,1.2,6.7-1.4,2.4-3,5.6-5.4,8.5-8,3.2-2.9,6.6-5.6,9.9-8.4-1.5-2-2.8-3.7-4.4-5.8ZM179.7,570.9c-.8.6-1.5,1-2.1,1.6-8.5,7.3-17,14.6-25.4,22-.9.8-1.1,2.2-1.6,3.4,1.7.5,2.9,2.7,5.1.6,3.9-3.6,8.1-6.8,12.2-10.2,5.1-4.3,10.3-8.5,15.4-12.8-1.4-1.7-2.5-3-3.8-4.5ZM562.2,420.3c-.4,0-.7,0-.9,0-1,.7-1.9,1.4-2.9,2-11.8,8.4-22.3,18.7-35.8,24.9v7c1-.7,1.6-1.1,2.3-1.5,11.1-8.1,22.1-16.5,33.5-24.2,3.5-2.4,4.1-4.7,3.8-8.2ZM557.7,447.4c-3.2,2.3-6.4,4.4-9.6,6.7-9.1,6.7-18.1,13.7-27.4,20.1-3.4,2.3-4.2,4.8-3.8,8.7.7-.5,1-.7,1.4-1,11.4-8.4,22.6-17.1,34.2-25.1,3.7-2.5,5.4-5.1,5.2-9.5ZM451.5,186.6c-3.5-2.3-6.3-4.2-9.2-6-.7-.4-2-.7-2.6-.3-4.2,2.7-8.3,5.5-12.1,8.2,2.5,3.2,4.6,6,6.9,8.9,5.4-3.4,11-6.9,17-10.8ZM189.4,620c4.7,3.4,4.6,3.3,8.2,0,6.6-6.2,13.1-12.5,20.1-18.3,3-2.5,2.6-4.4.2-7.6-9.5,8.6-18.8,17.1-28.4,25.9ZM379.1,605.3c-.2-.4-.3-.8-.5-1.1-.9,0-2.2-.2-2.7.3-6.2,5.9-15.5,7.5-21,14.5-.1.2-.4.3-.6.4-6.9,5.7-13.9,11.3-20.8,17-1.5,1.2-2.8,2.6-4.1,3.9-1.3,1.3-2.5,2.7-3.8,4,.2.2.3.3.5.5,17.6-13.1,35.2-26.3,52.8-39.4ZM421.9,169.8c-4-3.7-7.7-4-11.3-.3-.2.2-.4.3-.6.4-6.5,4.3-12.9,8.6-19.6,13,1.6,1.2,2.6,2.2,3.9,2.8.9.4,2.4.8,3,.4,8.2-5.3,16.3-10.8,24.6-16.3ZM253,166.1c3.3,1.2,5.5.9,8-1.2,7-6.1,14.4-11.8,21.6-17.6,2.5-2,4.9-4,7.3-6-.2-.3-.4-.6-.6-.9-2.9.6-6.5.3-8.7,2-8.5,6.5-16.5,13.7-24.7,20.6-1,.9-1.9,2-3,3.3ZM518.1,469.5c1.8-1.3,3.4-2.6,5.1-3.9,11-8,21.7-16.3,33.1-23.8,3.7-2.5,4-5.1,4.3-8.9-13.6,10.3-26.8,20.5-40.1,30.5-2,1.5-4.6,2.5-2.4,6.1ZM164.2,607c9.7-8.3,19-16.3,28.5-24.5-.4-1.2-1-2.7-1.7-4.8-10.4,8.8-20.4,17.4-30.8,26.2,1.8,1.4,2.9,2.3,4,3.1ZM78.6,519.2c5.6-4.4,11-8.6,16.3-12.8.4-.4.8-1.3.7-1.8-.5-2.2-1.1-4.4-1.9-7.3-6.8,5.2-13.1,10.1-19.5,15.1,1.5,2.4,2.9,4.4,4.4,6.8ZM486.4,215.5c-9.1,6.5-17.9,12.7-26.7,19,1.5,1.4,2.8,2.5,4,3.6,9.1-6.1,18-12,26.9-17.9-1.3-1.4-2.7-3-4.1-4.6ZM474.1,204.3c-1.2-1.1-2-2.1-3.1-2.8-.7-.4-2.1-.7-2.6-.3-8.7,5.9-17.4,12-26.1,18.1,3.1,2.8,5.6,2.7,8.7.5,7.5-5.3,15.2-10.3,23.1-15.5ZM558.2,346.2c-5.8,4.2-11.5,8.3-17.2,12.5-5.1,3.9-5.1,4-2.4,10.1,6-4.5,11.9-9,17.9-13.3,4.4-3.2,4.6-3.9,1.7-9.3ZM435,176.9c-4-3.9-6.4-4.3-11.6-1-7.2,4.7-14.2,9.7-21.2,14.7-.8.6-1.3,1.7-2.4,3.3,5.7-2.7,10.4-5.1,15.3-7.1,2.1-.9,4.9-.2,6.8-1.2,4.6-2.6,8.8-5.7,13.2-8.7ZM86.4,457.2c-1.1.7-2.1,1.2-2.9,1.9-6.9,5.3-13.8,10.7-20.8,15.9-3.8,2.8-3.9,3.4-1.2,7.6,9.2-7.1,18.3-14.2,27.6-21.4-.3-.5-.7-1.3-1.1-1.9-.4-.6-.8-1.1-1.6-2ZM482,212c-2.8-4.4-3.1-4.5-6.8-1.9-.6.4-1.2.8-1.8,1.2-7,4.9-14,9.9-21.1,14.8,1.1,1.5,2,2.8,2.9,4.1,9-6.2,17.8-12.2,26.7-18.2ZM129.9,581.1c7.1-6.5,14-12.8,21.2-19.4q-7.4-1.3-12.3,2.9c-.6.5-1.3,1-1.9,1.6-3.7,3.4-7.3,6.8-11.1,10.3,1.4,1.6,2.5,2.9,4.1,4.6ZM176,559.5c-11.4,10.4-22.7,20.7-34.1,31.2,1.1,1,2,1.7,2.4,2.1,9.9-8.6,19.4-17.1,29.1-25.3,2.7-2.3,3.9-4.5,2.5-8ZM224.5,603.6c-7.6,7.1-15.4,14.5-23.5,22.1,2.1,1,3.5,1.6,4.3,1.9,8.9-7.9,17.4-15.5,26-23.2-2.3-.3-4.3-.5-6.8-.8ZM534.5,355.9c6.9-4.6,13.3-8.9,19.9-13.1,1-.6,3-1.1,3.5-.6,2.6,2.5-1.6-2.2-2.2-6.3-7.9,5.8-15.6,11.3-23.4,17,.9,1.2,1.7,2.1,2.3,2.9ZM179.7,614.9c1.6.6,2.1,4.1,4.9,1.3,7.4-7.3,15-14.4,22.5-21.6.7-.7,1.3-1.5,1.9-2.2-1.5-.3-2.8-.6-4-.6-.8,0-1.9.1-2.4.6-7.5,7.3-15,14.7-22.8,22.5ZM243.4,607c-.2-.3-.5-.6-.7-.9-12.9,4.3-20.2,16.3-31.8,23.3,2.4,1,3.9,1.7,4.8,2,9.6-8.4,18.7-16.4,27.8-24.5ZM308.2,646.9c4.5.5,7.5-.4,9.6-3.9.9-1.6,2.6-2.7,4-4,6.8-6.2,13.6-12.4,20.5-18.6,1-.9,2.9-1.9.7-3-10.8,10.7-24.9,17.3-34.8,29.5ZM381.9,633.9c.2.3.4.6.6.9,16.8-5.7,29.1-18.3,43.4-27.9-.3-.5-.7-1-1-1.5-14.3,9.5-28.7,19-43,28.5ZM98.5,511.2c-4.3,3.9-8.4,7.5-12.4,11.1q-4,3.6-1.1,8.2c5.1-4.2,10.2-8.3,15.6-12.7-.6-1.9-1.3-4-2.1-6.6ZM355.4,640.5c.3.4.5.8.8,1.2,4.5-.9,8.6-2,12.3-5.3,5.2-4.5,11-8.5,16.5-12.6,3.5-2.6,7-5.2,10.5-7.8-.2-.3-.4-.6-.6-.9-13.1,8.5-26.3,16.9-39.4,25.4ZM112.4,529.1c-6,5-11.8,9.8-17.6,14.6,1.3,1.6,2.3,2.9,3.3,4.1,4.1-3.4,7.7-7.1,11.9-9.8,3.6-2.3,4.5-4.7,2.4-9ZM279.2,626.9c-1.7.3-2.9.2-3.7.7-5,3.6-9.7,7.5-14.7,11-3.6,2.4-3.7,5.5-2.7,9.3.6-3.2,2.2-4.8,5.5-4.4.5,0,1.1-.5,1.5-.9,4.5-4.9,9-9.9,14.2-15.7ZM106,556.8c4.5-3.9,9-7.6,13.6-11.5-.7-1.8-1.4-3.8-2.2-5.9-5.1,4.4-10,8.6-14.8,12.8,1.2,1.6,2.3,3,3.5,4.6ZM90.6,487.2c-1.1.7-2.2,1.4-3.2,2.1-5,3.8-9.9,7.6-14.9,11.4-2.9,2.3-2.9,2.6-.5,5.3,5.7-4.4,11.3-8.8,17-13.1,2-1.5,3.4-2.9,1.5-5.8ZM135.8,557.5c-2.7,0-4.7,0-6.6,0-.8,0-1.8.4-2.4.9-2.3,2-4.4,4.2-6.6,6.3-4.1,3.8-4.5,3.1.2,7.2,5.1-4.8,10.3-9.7,15.4-14.4ZM272.9,644.4c.3.5.5,1.1.8,1.6,2.3-.4,5.2,0,6.7-1.3,4.4-3.6,8.3-7.9,12.5-12.1-1-1-1.8-1.9-2.6-2.8-6,5-11.7,9.7-17.5,14.5ZM305.6,637.4c-2.2-.4-4.4-1.4-5.4-.7-4,2.7-7.6,6-11.7,9.3,8.3,2.3,10.8,1.1,17.1-8.6ZM104.1,523.8c-3.9,3.1-7.6,6.5-11.7,9.2-3.1,2.1-2.5,3.7-.3,5.9,4-3.4,7.8-6.9,11.8-10,2.4-1.8,2.3-3.2.2-5ZM189.7,595.4c-.1-.2-.3-.4-.4-.6-6.4,4.8-12.8,9.7-19.5,14.8,1.4,1.2,2.5,2,3.5,2.9,5.7-5.9,11-11.5,16.4-17.1ZM143.8,579.6c2.5-2.1,5-4.2,7.5-6.3,2.5-2.1,5.1-4.1,7.6-6.3,2.3-2.1,4.5-4.3,6.8-6.5-5.3,1-19.4,13.6-21.9,19.1ZM113.1,564.6c3.4-4.8,9.1-7.2,10.3-13-.3-.3-.5-.5-.8-.8-4.1,3.3-8.2,6.7-12.5,10.2,1,1.2,1.8,2.1,3,3.5ZM400.3,591.6c-4.3-3.1-5.4,1.9-8.1,2.5-3.7.8-4,1.6-5.3,6.7,4.5-3.1,8.8-6,13.5-9.2ZM439.2,559.9c-2.4-1.1-4.6-2.1-6.9-3.2-.4,3.8-.7,7.1-1.1,10.6,2.6-2.4,5.2-4.8,8-7.4Z"/>
      <path class="cls-1" d="M281.5,523.1c2.6-5,5.2-9.9,7.6-15,.5-1,.3-2.3.5-3.4-1.3.3-3.2.2-3.7,1-3.9,6.8-7.6,13.8-11.4,20.7-.7,1.2-1.6,2.5-2.7,3-3.3,1.5-6.7,2.5-10.1,3.7-.3-.3-.6-.5-.9-.8.9-3.4,1.3-6.9,2.6-10.1,2-4.8,4.7-9.3,6.9-14.1.4-.8.2-2.6-.4-2.9-.8-.5-2.8-.7-3.3-.1-7.1,7.7-12.7,16.2-14.1,26.8-.3,2.3-1,3.5-3.2,3.7-.6,0-1.1.4-1.7.6-8.5,2.5-8.8,2.3-7.9-6.7.9-8.6,4-16.5,8.4-23.8.6-.9,1.5-1.8,1.6-2.7.1-1.1-.2-2.5-1-3.2-.5-.4-2.5-.2-2.9.4-2.5,3.5-4.8,7-6.9,10.7-4.2,7.6-6.6,15.9-7.3,24.6h-.9c-.3-1.6-.9-3.3-.9-5.1-.3-11.3,1.9-22.1,7.6-31.9,1.2-2.1,1-3.5-1-4.8-1.9-1.2-3.4-1-4.8.9-6.6,8.6-9.7,18.6-11.1,29.2-2.6,19.7.3,38.4,11.1,55.5.4.6.6,1.2.3,2.4-1.7-1.6-3.6-3.1-5.1-4.9-10.9-13.3-17.8-28.6-21.3-45.4-2.7-13.3-3.4-26.7,2.3-39.3,2.7-5.9,6.8-11.2,10.8-16.5,1.3-1.8,2.3-3,.6-4.8-1.6-1.7-3.3-1.7-5.3-.2-8.4,6.1-12.9,14.9-16.2,24.4-5.2,15-3.4,30-.3,45.1,2.3,11.2,5.7,21.9,11.7,32-6.7-2.5-18-19.5-22.7-34-.5.3-1.1.5-1.7.8-5.1-17-7.7-33.9-4-51.2,3.3-15.2,10.5-28.3,22.8-38.2,3.2-2.5,7-4.2,10.7-6.1,2.2-1.1,4.7-2.2,3.7-5-1-2.8-3.6-3-6.3-2-10.7,4.1-19.1,11.2-26.4,19.7-3.3,3.8-6.4,7.8-9.7,11.6-.4-.1-.8-.2-1.3-.3.2-1.5,0-3.2.6-4.5,4.9-11.5,12.9-20.2,23.7-26.4,4.5-2.6,9.1-5.1,13.5-7.7,1.3-.7,2.4-1.7,3.3-3.1-10.7.9-19.6,6.2-28.4,11.7-.2-.3-.5-.6-.7-.9,1.5-1.8,2.9-3.9,4.7-5.4,10.7-9.7,22.1-18.2,36.3-22.1,1.6-.4,3.3-2,4-3.5,1.6-3.3,0-5.8-3.7-5.5-4.1.4-8.1,1.3-12.2,2.1-.9.2-1.7.5-3.1,0,1.5-1.7,2.9-3.6,4.6-5.1,13.3-11.4,28.1-19.5,46-20.8,1.1,0,2.7-1.5,3-2.6.3-.9-1-3.1-1.8-3.2-3.4-.5-7.2-1.2-10.4-.4-6.6,1.7-12.9,4.3-19.4,6.5-.7.3-1.5.6-2.6.3,1-.9,1.8-1.9,2.9-2.6,6.2-4.1,12.1-8.7,18.7-11.9,4.6-2.2,10.1-2.8,15.4-3.5,4.8-.6,6.5-3.3,5.2-8-1-3.5-2.6-5.2-6.2-4.7-1.4-6.6-2.5-12.9-4.1-19.1-1.8-6.7-5-12.7-10.8-16.9-7.3-5.2-22.2-4.8-28.9,1.9-5.8,5.8-9,12.9-12.1,20.2-.4.9-.1,2.5.5,3.1.6.6,2.3.9,3.1.4,2.1-1.1,4-2.7,6-4,3.8,16.1,22.8,19.9,34.7,3.3.6,4.5,1.2,8.6,1.6,12.6,0,.5-.7,1.5-1.3,1.7-30.3,11-49,33.9-63.1,61.5-.2.4-.5.7-1.3,1.6.1-1.6,0-2.6.3-3.4,3.4-14.9,7.2-29.6,14.8-43.1.7-1.2,2.5-2.8.2-4.2-2.4-1.5-3.4.6-4.4,2.1-7.2,10.4-12.2,21.8-15,34.2-.1.6-.3,1.1-.5,1.6,0,0-.2.1-.6.5-.2-.8-.6-1.5-.5-2.2.5-13.5,4.2-26.1,11.3-37.6,1-1.6,2.5-3.2.1-4.8-2.2-1.5-3.6,0-4.7,1.5-5.9,7.4-9,16.3-12.1,25.1-.6,1.6-1.2,3.2-1.7,4.9-.4,0-.8,0-1.2,0-.1-2.3-.6-4.6-.4-6.9.6-7.7,3.2-14.7,7-21.4,1.3-2.3,2.3-4.1-1.2-5.6-.9-.4-1.3-3.4-.8-4.9,1.3-4.3,3.2-8.3,5-12.5.5-1.2,1.5-2.3,1.7-3.5.1-1.1-.6-2.2-1-3.3-1,.5-2.3.7-2.8,1.5-3.1,4.9-6,9.9-9,14.9-1.2,2-2.5,3.9-4.4,6.8-.6-2-1.3-3.2-1.2-4.2.7-3.7,1.2-7.5,2.7-10.9,3.2-7,7.1-13.6,10.5-20.5,1.7-3.5,3.1-7.2,4.1-10.9.4-1.4-.7-3.1-1.2-4.7-1.3.7-2.9,1.2-3.8,2.2-2.3,2.5-4.1,5.5-6.4,8-2.2,2.4-3.9,1.8-4.3-1.5-.3-2.6-.2-5.4.3-8.1,1.6-8.4,6.5-14.8,12.7-20.4,1.7-1.6,3.6-3.2,4.9-5.1.7-1,.9-3.5.3-3.9-3.3-2.4-1.8-5-.7-7.5.8-1.8,2.4-3.2,3.4-4.9.5-.9.3-2.1.3-3.1-1.1,0-2.6-.3-3.1.3-2.9,3-5.6,6.4-8.5,9.5-.9,1-2.2,1.7-3.3,2.5-.6-1.5-1.9-3.2-1.5-4.3,1.3-3.7,2.9-7.5,5.2-10.7,9.6-13.6,23.3-20.3,39.6-22.2.8,0,1.6.4,2.3.2,1-.2,2.2-.5,3-1.1.4-.3.4-1.9,0-2.2-.8-.7-2-1.3-3-1.2-9.3.7-18.4,0-26.6-4.8-5.2-3.1-9.5-7.2-9.7-13.9-.2-4.6,1.7-6.5,6.2-5.7,3.1.6,6.1,1.8,8.9,3.3,9.7,5.5,20,8.9,30.9,11,.8.2,1.7.6,2.4.3,1.4-.5,2.8-1.3,4.1-2-1-1-1.9-2.1-3.1-2.9-4-2.5-8.3-4.4-11.9-7.3-1.7-1.3-3.2-4.5-2.9-6.5.5-3,4-3.6,6.7-3.1,2.4.4,4.7,1.4,6.9,2.5,4.7,2.6,9,5.7,13.8,8,3.4,1.6,7.3,2.5,11.1,3.2,1.2.2,2.7-1,4-1.5-.7-1.2-1.1-2.9-2.1-3.6-8.1-5.7-10.8-14.1-12.7-22.6,2.2.8,4.1,1.5,6,2.4,4,1.7,8.6,2.7,11.7,5.4,6.4,5.5,12.1,11.9,18.1,17.9,1,1,3,2.3,3.5,1.9,1.2-.9,2.3-2.5,2.6-4,1.2-5.8,2.1-11.6,3.1-17.4.1-.6.4-1.1.6-1.7,1.6-3.9,5.3-7.2,8.3-6.8,3.9.5,6.7,3,7.6,6.6,1.6,6.3,2.6,12.7,4,19,.3,1.5,1.5,2.9,2.3,4.3,1.3-.7,2.9-1.2,3.9-2.3,6.5-6.2,12.7-12.7,19.4-18.6,2.4-2.1,6.1-2.8,9.2-4.1,2.3-1,4.6-1.8,7-2.8,0-.2.2.6,0,1.3-2.2,8.5-5.2,16.5-12.8,21.8-.9.7-1.2,2.2-1.8,3.4,1.3.6,2.7,1.6,4,1.6,7-.3,12.8-3.9,18.6-7.3,3-1.8,5.9-4.1,9.2-5.3,2.5-.9,5.6-1.1,8.2-.5,3.1.6,4,3.4,2.1,6.1-1.2,1.8-3.1,3.2-4.7,4.7-1.4,1.3-3,2.6-4.5,3.8-.5.4-1.2.7-1.8.9-.5.1-1.3-.2-1.7,0-1.8,1.1-5.1,2.6-4.9,3.5.5,3.1,3.4,2.5,5.7,2,11.2-2.5,22.1-5.9,32.3-11.5,2.7-1.5,5.8-2.7,8.9-3.2,4.2-.7,6.2,1.4,6,5.6-.3,6.4-4.2,10.7-9.3,13.9-8.3,5.1-17.6,5.6-27.1,5-2.1-.1-3.5.4-3.3,2.4,0,.8,1.8,2.1,2.8,2.1,15.7.1,28.7,5.8,39,17.7,2.2,2.5,4.4,5,6,7.9,1.3,2.3,1.9,5,2.3,7.6.2,1.1-.9,2.4-1.4,3.6-1-.7-2.1-1.2-2.9-2.1-1.4-1.6-2.4-3.5-3.8-5.2-1.2-1.5-2.4-3-3.9-4-1.2-.7-3.4-1.4-4.2-.8-1.9,1.4.1,2.7.9,4.1,1.4,2.3,2.9,4.6,3.8,7.1.5,1.3,1.2,3.6-1.5,4.3-.2,0-.3,2.7.3,3.6,1.4,2,3.3,3.7,5,5.4,5.7,5.6,10.6,11.8,12.3,19.9.6,2.8.6,5.9.3,8.8-.3,3.1-2.1,3.6-4.1,1.3-2.3-2.5-4.1-5.5-6.4-8-1-1.1-2.5-1.6-3.8-2.3-.5,1.6-1.8,3.4-1.3,4.6,2.3,6.1,4.9,12,7.6,17.9,3,6.6,6.4,13.1,9.1,19.9.9,2.2.1,5.1.1,7.6-.4,0-.8.2-1.1.3-.7-.9-1.4-1.7-2-2.7-3.5-5.8-6.9-11.6-10.3-17.4-.9-1.5-1.8-3.5-4-2.2-2.2,1.3-.9,3.1-.2,4.7,2.3,5.2,4.6,10.3,6.7,15.5.8,1.9.8,3.8-2.1,4.6-2.7.8-1.5,2.9-.8,4.7,2.6,6.7,5.2,13.4,7.4,20.2.8,2.6,1.3,5.7-1.3,9-.7-1.7-1-2.9-1.5-3.9-3.7-8.1-7.5-16.3-11.3-24.4-.5-1.2-1.3-2.5-2.3-3.1-1-.6-2.5-.4-3.7-.6-.1,1.2-.8,2.8-.2,3.6,6.1,9.8,9.7,20.5,11.2,31.9.4,2.8,0,5.7-.5,8.7-.4-1.3-.8-2.5-1.1-3.8-2.6-12-8.5-22.5-14.9-32.7-.6-1-2.5-1.2-3.7-1.8,0,1.4-.7,3,0,4,7.9,13.3,11.6,28.1,14.8,43,.2,1,.4,2.1.6,3.1,0,.2-.2.4-.5.9-.6-1.2-1.1-2.2-1.6-3.2-10.5-20.7-24.6-38.4-44.1-51.3-5.4-3.6-11.8-5.8-17.9-8.4-1.8-.8-2.6-1.3-2.1-3.5.8-3.5,1.1-7.2,1.8-12,4.4,8.1,10.3,12.3,18.6,11.6,8.5-.7,13.4-6.1,15.6-14.1,2.2,1.5,4.1,3.1,6.3,4.2.8.4,2.3,0,3.2-.5.6-.3,1-1.8.7-2.4-3.6-7.8-6.2-16.2-13.5-21.7-10.6-7.9-29-6.7-35.6,9.2-2.9,7-4.1,14.7-5.9,22.1-.5,2.1-.6,3.7-3.4,3.9-2.4.2-5.2,5.3-4.9,8.1.4,3,2.3,4.6,6.2,4.3,11.4-.8,29.7,10,36.2,17.8-5.5-1.8-11.2-4.1-17.2-5.7-3.9-1-8.2-1.1-12.3-1.2-2.3,0-4.7.7-4.7,3.7,0,3,2.4,2.9,4.6,3,12.3.6,23.2,5.3,33.3,11.9,4.8,3.1,9.2,7,13.7,10.7,1,.8,1.6,1.9,3.2,3.7-3.5-.8-6-1.4-8.5-1.8-2.3-.4-4.6-.5-7-.7-2.2-.2-4.3.4-4.4,2.9-.2,2.5.9,4.6,3.5,5.5,3.9,1.3,8,2.4,11.7,4.1,10,4.8,18.9,11.3,26.5,19.3,1.3,1.4,2.3,3.1,3,5.1-3.2-1.8-6.3-3.8-9.6-5.3-5.2-2.3-10.5-4.2-15.8-6.2-.9-.3-2.1.2-3.1.4.6.9,1.1,2,1.9,2.5,7.3,4.3,14.9,8.2,22,12.9,7.4,4.8,12.4,11.9,15.8,20,.8,1.8.9,3.8,1.4,5.7-.5.2-.9.4-1.4.6-1.7-2.2-3.4-4.3-5-6.5-7.8-10.1-16.6-19.1-28.8-24-4.7-1.9-7.2-1.6-8.2,1.2-1,2.6.6,4,5.5,5.8,8,2.9,13.9,8.6,18.5,15.4,4,5.9,6.9,12.6,10.4,18.9.8,1.5,2,2.8,3,4.3-.1,1-.7,2.4-.5,3.7,3.3,16.7,3.1,33.3-3.4,49.1-4.8,11.6-10.4,23.1-19.4,32.4-1,1-2,2-3,3-.8.7-1.6,1.3-2.5,2-.1-.3-.4-.5-.3-.6,8.5-14.1,11.6-29.7,14.1-45.7,2.4-15.6,0-30.2-8-43.6-2.7-4.6-6.7-8.4-10.6-12.2-.9-.9-3.9-.7-5.2,0-1.7,1.1-1.5,3.1.2,4.8,12.7,12.3,16.8,27.8,15.2,44.7-1.9,20.2-9,38.6-21.5,54.7-2,2.6-4.6,4.8-6.9,7.2l-.9-.7c1.4-2.5,2.9-5,4.2-7.5,11.6-23.7,12.5-47.6,1.9-71.9-1.1-2.6-2.9-4.9-4.4-7.3-1.4-2.2-3.3-2.7-5.4-1.2-2.1,1.5-1.6,3.2-.6,5.3,5.7,10.8,8.4,22.2,6.9,34.4,0,.6-.4,1.2-.4,1.2-2.4-6.9-4.7-14.2-7.6-21.3-1.7-4.1-4.2-7.9-6.7-11.7-.6-1-2.7-2-3.5-1.6-1.8.7-1.7,2.5-.6,4.1,5.8,8.5,9,17.9,9.7,28.2.4,5.6-1.2,6.7-6.7,4.8-1.9-.7-3.8-1.2-6-1.9-.9-11-6.5-20.2-13.2-28.9-1.2-1.5-2.4-3.4-4.5-1.5-1.9,1.7-.6,2.9.5,4.7,4.2,7,7,14.6,8.3,24.1-4.9-1.9-8.8-3.4-12.7-5.1-.4-.2-.5-1-.7-1.5-3.5-6.8-6.9-13.7-10.4-20.5-1-1.9-2.5-3.2-5.3-1.6,3,6,5.9,12,8.9,18-7.4-5.3-13.2-11.7-15.4-20.6-.6-2.5-.3-3.7,2.5-4.6,19.3-5.5,31.5-18.8,35.7-37.7,3.2-14.2-1-26.3-18.9-31.5-11.7-3.4-23.8-3.9-35.9-2.6-6.5.7-13.2,1.6-19.4,3.5-11.4,3.4-16.7,11.7-17,23.3-.4,16,8,27.3,19.6,36.6,4.8,3.9,11.1,6,16.9,8.6,2.1,1,3.4,1.7,2.7,4.3-2.5,9-7.6,16-15.9,20.8ZM408.3,299c-.5.2-.9.5-1.4.7-1.7-2.1-3.4-4.1-5.2-6.2-1.7-2-3.8-2.5-6-1-2.2,1.5-1.7,3.5-.6,5.3,3.3,5.5,7.7,8.9,14.4,9.4,4.5.3,8.1-2.5,7.3-7-.6-3.6-1.4-7.3-3.1-10.4-11.6-21.9-39.1-26.8-58.2-8.1-1,1-1.7,3.7-1,4.9,1.3,2.4,3.1.6,4.6-.5,7.9-5.8,16.7-8.8,26.6-7.5,10,1.3,17.4,6.2,21.6,15.6.6,1.4.6,3.2.8,4.8ZM202.2,300.6c-.8-.5-1.6-1-2.4-1.6.5-2.1.8-4.4,1.7-6.3,6.9-13.9,24.3-17.5,36.8-12.5,4.2,1.7,8,4.5,12.1,6.6.8.4,2.5.4,2.9-.1.6-.8.8-2.2.7-3.3,0-.7-.9-1.4-1.4-2-10.3-9.9-22.4-13.9-36.3-9.6-13.7,4.2-21.9,13.6-25,27.6-.8,3.5,1.5,7.4,4.8,7.9,1.6.3,3.3,0,4.9-.4,6-1,10.4-4.5,12.8-10,.5-1.1,0-3.7-.9-4.3-1.1-.7-3.3-.5-4.7.1-1.4.7-2.4,2.3-3.3,3.6-1,1.3-1.7,2.8-2.5,4.2ZM237.9,251.6c-3.1.8-6.3,1.1-9.1,2.5-1.3.6-2.9,3.8-2.4,4.5.9,1.4,3.5,3.1,4.9,2.7,9.1-2.4,16.8-.3,23.8,5.7,1.5,1.2,3.3,2.7,5.2.3,1.7-2.1.8-3.7-.7-5.3-5.8-6.3-12.9-9.8-21.6-10.4ZM371.2,251.6c-9.3.4-16.9,4-22.8,10.7-.9,1.1-1.2,3.7-.6,4.9,1.1,2.2,3.2,1.3,4.8,0,7.2-6.1,15.2-8.1,24.4-5.9,2.4.6,4.5-.6,4.8-3,.1-1.4-1-3.8-2.2-4.4-2.6-1.3-5.6-1.6-8.4-2.4ZM358.6,429.7c-.3-.7-.4-1.3-.7-1.6-5.5-3.9-11.1-7.9-16.8-11.5-.6-.4-3.2,1-3.7,2.1-.4.9.6,3,1.7,3.8,2.3,1.9,5.1,3.3,7.6,5.1,2,1.4,3.7,3.3,5.8,4.6,1,.6,2.7.6,3.9.2,1-.4,1.6-1.8,2.4-2.7ZM253.2,433.5c1.7-1,3-1.7,4.3-2.6,3.7-2.5,7.2-5.2,10.9-7.7,1.9-1.3,3.7-2.4,2.1-5-1.4-2.4-3.5-2.2-5.5-.9-4.7,3.1-9.4,6.3-13.9,9.7-.9.7-1.5,2.6-1.2,3.6.4,1.2,2,1.9,3.2,2.9ZM267.7,525.5c4.2.1,5-.7,4.4-4.5-3.6-.2-4.3.4-4.4,4.5ZM341.4,524.6c-1.2-1.4-2.5-2.8-3.7-4.2-.6.7-1.7,1.6-1.6,2.2.3,2.3,1.9,3.4,5.3,2ZM405.6,389.8c.6,0,1.1.1,1.7.2.2-1.3.5-2.5.5-3.8,0-.2-1.5-.4-2.2-.6v4.2ZM204.5,387c-1.2-.8-2.1-1.8-2.4-1.6-.8.4-1.6,1.3-1.7,2.1-.1.5.9,1.3,1.4,1.9.8-.7,1.5-1.4,2.8-2.5Z"/>
      <path class="cls-1" d="M162.4,264.4c-.3,6.2-.3,11.9,5.7,15.4-7.5,7.9-9.7,17.8-11.1,28-.4,2.9-.5,5.9,0,8.7.7,4,2.9,7.2,6.4,8.6-2.8,7.3-6,14.3-8,21.7-1,3.6-.5,8,.3,11.8,1,4.9,5.4,6.5,10,7.9-.3,1.4-.6,2.7-.8,4.1-.9,5.2-1.7,10.5-2.8,15.7-.7,3.2-1.9,6.2-2.9,9.3,0,.1-.1.2-.2.3-3,5.1-2.7,9.9,1,12,3.7,2.2,9,0,11.8-4.8.3-.6.6-1.2,1.3-2.5.4,1.3.8,2,.7,2.7-.9,7-2.3,13.8-7.3,19.2-1,1.1-2.1,2.4-2.4,3.8-.2,1.1.5,2.6,1.3,3.5.3.3,2.2-.1,2.8-.7,1.8-1.7,3.4-3.7,4.9-5.6.7-.9,1.1-2.1,1.6-3.1.5.4,1.1.9,1.6,1.3-.3.8-.4,1.6-.8,2.3-5.2,12.2-10.7,24.2-15.5,36.5-1.7,4.4-2.2,9.4-2.6,14.1-.2,1.9,1.5,4,2.3,6,.3.9.5,1.9.7,2.9.4,2-.8,4.6,2.1,5.8.4.1.3,1.5.3,2.3.2,8.5.1,17,.7,25.4.4,5.6,1.8,11.1,2.7,16.6.2,1.3,0,2.7,0,4-.3.1-.7.2-1,.3-.5-.6-1.2-1.2-1.4-1.9-4-12.5-7.7-25.1-8-38.4,0-3.8.4-7.5.5-11.3,0-1.1-.6-2.2-.9-3.4-.6,1.1-1.8,2.1-1.9,3.3-.5,8.7-1,17.5-1.2,26.2-.1,6.6-.1,13.3.6,19.8.4,3.9,2.3,7.7,3.7,12-1.1-1.3-2.2-2.5-3.1-3.8-6.4-9.2-8.3-20-9.8-30.8-1-6.9-.7-14-.8-21.1,0-2.1-.5-4.1-2.7-4.1-1,0-2.8,2-2.8,3.2-.5,8.3-1.3,16.8-.7,25,.7,8.8,2.8,17.6,4.2,26.3-4.4-3.2-7.6-7.8-9.4-13.3-3.1-9.7-3.6-19.7-3.6-29.8,0-15.1,1.6-29.9,7.3-44.1.4-1.1,0-3.2-.8-3.8-1.7-1.2-3.2-.3-4.3,1.6-5.8,11-9.3,22.7-10.7,35-.9,8.4-1.5,16.7-2.3,25.8-1.2-2.5-2.6-4.6-3.4-7-8.3-23.7-5.4-46.3,7-67.8,1-1.7,2.4-3.2,3.7-4.7,1.6-1.8,2.9-3.7.9-5.9-2-2.1-4.4-1.8-6.3.1-2.6,2.7-5.1,5.6-7.2,8.7-3.1,4.8-5.8,9.9-9.5,14.8.3-4.6.5-9.3,1-13.8,1.4-11.2,4.2-22,8.4-32.5.5-1.4.4-3.8-.5-4.7-1.7-1.7-3.9-1-4.9,1.3-2.9,6.7-5.6,13.5-8.3,20.2-.7,1.6.3,4.6-2.9,4.3-3.1-.3-2.6-3.1-2.6-5-.6-15.9,2.9-30.7,11.9-44,1.2-1.8,2.2-4,2.3-6.1,0-1.3-1.5-3.4-2.8-3.7-1.2-.3-3.3.7-4.2,1.9-3,3.5-5.6,7.3-8.5,10.9-.7.8-2.4,1.7-3.2,1.4-.9-.3-1.7-1.9-1.9-3-.7-5.6,1.5-10.5,4.1-15.1,2.2-3.9,4.8-7.6,7.3-11.3,8.6-12.4,17.2-24.8,26-37.1,1.6-2.3,4.2-3.8,6.3-5.8,4.7-4.5,9.4-9,13.8-13.8,1.1-1.2,1.5-3.7,1.2-5.4-.6-2.7-3-3.1-5.1-1.3-1.5,1.3-3,2.7-4.6,3.9-.7.5-1.9.5-2.8.7,0-1-.5-2.3,0-3.1,3.9-7.4,9.9-12.9,16.6-17.6,4-2.8,8.3-4.9,13.8-5.1ZM145.2,473c-2-1.1-3.3-2.4-4-2.1-1.1.5-1.8,2-2.7,3,.9.6,1.9,1.7,2.7,1.5,1.1-.2,2.1-1.2,4-2.5ZM143.1,460.9c3.2-.2,5.5-4.9,3.9-8.6-1.2,2.7-2.4,5.4-3.9,8.6Z"/>
      <path class="cls-1" d="M505.8,448.4c-4.8-7.3-9.2-14.4-14.1-21.2-1.2-1.7-3.7-2.7-5.8-3.4-.8-.3-2.7,1-3.2,2-.5,1-.3,2.9.3,3.8,17.2,23.5,20.7,48.8,10.3,76-.5,1.4-1.3,2.6-2,4-.3,0-.6-.1-.9-.2,0-4.1.2-8.3,0-12.4-.9-16.3-4.3-32-11.8-46.7-1-1.9-1.8-3.8-4.4-2.6-2.6,1.1-1.4,3.1-.8,4.8,7.9,21.4,8.8,43.3,5.8,65.6-1,7.7-4.1,14.5-10.3,19.6-.4.4-.9.6-2,1.2.3-1.4.4-2.3.7-3.1,5.4-15.7,5.2-31.8,3.5-48-.1-1.3-2-2.3-3.1-3.5-.8,1.5-2.3,3.1-2.2,4.5,1.5,15.1-2,29.3-6.5,43.4-1.4,4.5-4,8.5-8,11.4,1.2-2.1,2.9-4.1,3.4-6.3.9-4.3,1.5-8.8,1.5-13.3-.2-12.2-.7-24.3-1.2-36.5,0-1.7-.7-3.4-1.1-5.1-.3,0-.7.1-1,.2-.5,9.4-.2,18.8-1.6,28-1.4,9.2-3.4,18.5-7.2,27.2-.5,0-1.1-.2-1.6-.2.2-3.1.1-6.2.8-9.1,2.7-12.3,3.4-24.6,2.6-37.3-.2-2.9,1.1-7.4,3-10.1,2.4-3.6,2.9-7.1,2.5-11-.3-2.8-1-5.6-2.1-8.2-5.5-12.9-11.1-25.8-16.7-38.7-.3-.6-.5-1.2-.1-2.5.7.5,1.6.9,2.1,1.5,1.7,1.9,3.2,4.1,5.1,5.9.8.7,2.3.7,3.5,1,.2-1.5,1-3.2.5-4.4-.8-1.9-2.4-3.4-3.7-5.2-3.6-5-4.8-10.7-5.3-16.6,0-.6,0-1.2.2-1.7,0-.2.3-.3.7-.7.5.7.9,1.3,1.3,1.9,1.1,1.4,2,3,3.3,4.1,2.7,2.2,6.6,2.4,8.9.8,2.4-1.8,3.2-5.2,1.8-8.7-1.5-3.8-3.4-7.5-4.5-11.4-.8-2.8-.6-5.9-1-8.8-.6-3.9-1.5-7.9-2.2-11.7.2-.3.3-.6.4-.6,10.1-3,11-8,9.4-19-.9-6-4.1-11.7-6.3-17.6-.6-1.5-1.4-3-2.2-4.5,7-4.3,8.1-10.6,6.9-17.9-1.6-9.9-3.6-19.5-10.7-27.2q4.7-5.9,5.6-16.2c2.9,1,5.7,1.6,8.2,2.9,8.9,4.4,15.9,11,21.2,19.4.4.7.9,1.5,1,2.2,0,.6-.1,1.5-.5,1.8-.4.3-1.4.2-1.8-.2-1.6-1.2-3.1-2.6-4.6-3.9-1.5-1.3-3.1-2.4-5-.7-1.7,1.6-2.7,4-.9,5.6,6,5.4,9.9,13,17.6,16.6.9.4,1.6,1.4,2.2,2.2,5.9,9.1,11.5,18.4,17.6,27.4,3.1,4.6,7,8.6,10.3,13.1,4.9,6.5,9.2,13.2,10.6,21.4.4,2.5,1.4,5.8-1.5,6.9-1.2.5-3.9-1.8-5.3-3.4-2.4-2.7-4.2-6-6.5-8.8-.8-1-2.6-2.1-3.7-1.8-1.3.3-3,1.9-3.1,3.1-.2,1.9.2,4.3,1.3,5.9,4.9,7,8.5,14.4,10.4,22.7.7,3,1.3,6,1.5,9,0,1,1.8,3.4-1.4,3.3.3,1.4.6,2.7.7,4.1.3,2.7.9,5.5.8,8.2,0,.9-1.6,1.8-2.4,2.7-.8-.9-1.9-1.6-2.3-2.6-2.7-6.9-5.1-13.9-7.7-20.8-.9-2.3-2.3-4-5.1-2.9-3,1.2-2.2,3.6-1.3,5.7,5.6,13.2,8.4,27.1,9.2,41.3,0,1.5,0,2.9,0,4.3ZM459.3,452.8c1.1,3.3,1.6,6.5,4.2,9.3,1-4-1-8.6-4.2-9.3ZM466.7,476.9c1.2-1.7,2.7-2.8,2.5-3.5-.3-1-1.6-2-2.7-2.4-.5-.2-2.2,1.3-2.2,1.9.2,1.1,1.2,2.1,2.3,3.9Z"/>
      <path class="cls-1" d="M319.6,593.7c-.2-2.1,0-3.3-.4-4.4-.4-1-1.5-1.7-2.3-2.5-.6.8-1.5,1.6-1.6,2.5-.9,5.6-1.2,11.3-2.5,16.8-.7,3.1-2.5,6.1-4.5,8.6-2.8,3.4-5.4,2.6-8.1-1-5.3-7.1-6.2-15.3-6.9-23.7,0-.9-.1-1.9-.1-2.8q-3.2-.5-4.5,6.9c-.3,0-.6.1-1,.2-.8-4.6-2-9.2-2.2-13.9-.2-5.5.6-11.1.9-16.6,0-1-.6-2-.9-3-.9.6-2.1,1.1-2.5,1.9-4.1,7.8-5.4,16.1-4.1,24.7,1,6.7,2.9,13.2,4.4,19.8-9-6.5-15.2-15.2-16.9-26.7-1.1-7.1-.8-14.2,1.2-21.1.6-2.1,1.8-4.1,2.6-6.2.4-1,.3-2.2.4-3.2-1.3.2-3.3,0-3.8.7-1.8,2.4-3.4,5.1-4.6,7.9-1.1,2.7-1.7,5.6-3.2,8.5-.2-2.7-.7-5.4-.6-8,0-2.6.9-5.2.7-7.7-.3-4.1,1.8-5.3,5.3-5.8,8.6-1.2,16.5-4.4,23.4-9.4,4.8-3.5,9-8,13.3-12.1,1.1-1,2-2.3,2.7-3.1,4.2,4,8.2,8,12.5,11.7,8.4,7.2,18.1,11.9,29.2,13.3,2,.2,3.3.8,3.4,3.2.3,5.3.9,10.5,1.2,15.8,0,.9-.4,1.9-.5,2.4-1.8-4.5-3.5-9.3-5.5-13.9-.5-1.2-1.6-2.4-2.7-3.2-.8-.5-2.4-.5-3.1,0-.5.4-.5,2.1-.1,3,7.8,15.6,6.6,30.6-3.4,44.8-2.6,3.8-6.5,6.7-10.1,9.4,1.7-5.7,3.8-11.3,5-17.1,1.8-9,1.1-17.9-3.2-26.2-.7-1.4-2.3-2.3-3.5-3.4-.3,1.6-1.2,3.2-1,4.7,1.5,8.9,1.8,17.6-1.3,26.2-.2.4-.4.8-1,2.1Z"/>
      <path class="cls-1" d="M73.8,275.7c8-8.9,15.2-18.9,24.2-26.6,23.6-19.9,48-38.8,72-58.1,6.9-5.5,13.7-11.2,20.5-16.9,4.3-3.6,8.8-7.2,12.6-11.3,4.4-4.7,10.2-6,16.2-7.7-.8.8-1.6,1.7-2.5,2.5-9.5,8.1-19.3,16-28.5,24.4-5,4.6-9.1,10.1-13.7,15.1-2.3,2.5-4.9,4.8-7.5,7-6.2,5.2-12.5,10.4-18.9,15.4-13.1,10.3-26.2,20.5-39.3,30.7-10.8,8.4-21.6,16.9-32.4,25.3-.6.4-1.3.6-2,1-.3-.3-.5-.6-.8-.9Z"/>
      <path class="cls-1" d="M511.4,324.6c-1-1.6-1.9-2.9-3-4.7,7-5.1,13.9-10.1,20.7-15.1,1.6-1.2,3.3-2.3,4.9-3.6,1.8-1.4,1.7-3.2.3-4.5-.6-.5-2.5-.1-3.4.5-7.2,4.9-14.4,9.9-21.6,14.9-1.1.7-2.1,1.6-3.4,2.6-.7-.8-1.5-1.7-2.6-3,4.6-3.4,9-6.6,13.3-9.9,5.5-4.1,11-8.2,16.5-12.3,1.7-1.2,2.6-2.8,1.2-4.4-.5-.6-2.9-.3-3.9.3-9.4,6.6-18.6,13.3-27.9,20-.5.3-.9.7-1.4,1-.3-.2-.6-.2-.7-.4-3.2-4.5-3.2-4.4,1.3-7.7,10-7.3,20-14.7,30.4-22.3,1,1.8,2.1,3.8,3.3,5.8,5.8,10,10,20.6,14.3,31.3,1,2.4.5,3.7-1.8,5.1-7.8,4.9-15.4,10.1-22.9,15.3-2.5,1.7-4.4,2.4-6.2-.7-.8-1.4-2.1-2.5-3.4-4.1,5.3-3.8,10.8-7.9,16.3-11.8,3.1-2.2,6.2-4.3,9.3-6.5.9-.6,2-1.2,2.4-2.1.5-1.2.5-2.7.7-4.1-1.3,0-3-.4-4,.2-6.5,4.3-12.9,8.7-19.3,13.2-3.1,2.1-6.1,4.4-9.3,6.8Z"/>
      <path class="cls-1" d="M324.5,460.1c1.5-3.8,2.9-7.6,4.4-11.4l-1.1-.5c-4.1,6.3-8.3,12.7-12.4,19-.4-.2-.7-.4-1.1-.6,3.4-6,6.9-12,10.3-18.1-.3-.2-.6-.4-.9-.6-1.4,2.2-2.8,4.3-4.3,6.5-.2-.1-.5-.2-.7-.4.7-1.9,1.3-3.8,2-5.7-.4-.2-.7-.4-1.1-.6-2,7.4-5.3,14-11.6,19.7,3.5-6.7,6.6-12.6,9.7-18.5-.5-.3-1-.5-1.4-.8-4.6,7-9.1,13.9-13.7,20.9-.3-.2-.5-.3-.8-.5,3.8-6.8,7.7-13.6,11.5-20.3-.4-.3-.8-.5-1.1-.8-4.9,7.1-9.8,14.3-14.8,21.4-.2-.1-.4-.2-.6-.4,4-6.8,7.9-13.6,11.9-20.5-.3-.2-.7-.5-1-.7-1.3,1.7-2.5,3.4-3.9,5.3v-2.9c-2.1,3.8-4.1,7.6-6.1,11.4-.3-.1-.6-.3-1-.4,1.8-4.1,3.6-8.2,5.4-12.3-2.3-1.6-2.9.2-3.7,1.6-2.2,3.9-4.4,7.7-6.6,11.6-.3-.2-.7-.3-1-.5,1.7-4.1,3.5-8.3,5.2-12.4-.3-.2-.6-.4-.9-.7-4.3,3.4-6.8,8.5-10.4,12.6-.3-.2-.5-.3-.8-.5,2.3-4,4.7-7.9,7-11.9-5.2,2.6-7.4,7.8-11.4,11.7,2.3-3.9,4.5-7.7,7.3-12.5-6.7,2.2-7.7,9-13.3,11.9,2.6-4,4.8-7.5,7-11.1-.4-.3-.7-.6-1.1-.9-2.8,3.2-5.6,6.3-8.4,9.5-.3-.2-.6-.4-.8-.6,1.5-2.3,2.9-4.7,4.4-7-.2-.2-.5-.4-.7-.7-1.1,1-2.3,1.9-3.5,2.9-.9-3.8.9-8.4,4.7-10,4.4-1.8,9.1-3.3,13.8-4.1,12.2-2,24.4-1.6,36.6,1.2,7.3,1.7,9.9,3.6,12.2,9.3-.8,1.1-1.6,2.3-2.4,3.4-.8,1.1-1.7,2.2-3.1,3.1.5-1.8,1-3.6,1.5-5.4-.4-.2-.7-.4-1.1-.6-2.5,4.1-5,8.2-7.6,12.2l-.5-.2Z"/>
      <path class="cls-1" d="M50.9,345.5c1.4-6,1.5-12.3,6.7-17.2,19.7-18.8,41.5-35,63.3-51.1.2-.2.6-.2,1.6-.5-1.3,1.6-2.3,2.6-2.9,3.8-1.8,3.6-4.1,7.1-4.8,10.8-.6,3.1-1.8,5.1-4.1,6.9-8.8,6.8-17.6,13.5-26.2,20.5-9.8,7.9-19.4,16.1-29.1,24.2-1.2,1-2.5,2.1-3.7,3.1-.3-.2-.5-.3-.8-.5Z"/>
      <path class="cls-1" d="M171.5,209c.9,3,1.7,6,2.7,9.3-9-.5-15,3.9-20.3,10.1-7.5,8.9-17.4,15.1-26.7,21.9-8.2,6-16.3,12.1-24.4,18.2-11.9,8.9-23.8,17.9-36.4,27.4,2.5-5.3,4.6-9.7,9.1-12.9,11-7.9,21.8-16.2,32.6-24.4,15.8-12,31.6-24,47.2-36.2,5.5-4.3,10.7-8.9,16.1-13.5Z"/>
      <path class="cls-1" d="M104.7,235.5c23.5-29.1,51.8-52,85.1-68.8.2.3.5.6.7.9-28.6,22.6-57.2,45.2-85.8,67.8Z"/>
      <path class="cls-1" d="M58.3,317.4c.4-5.3,3-8.7,6.1-11.5,6.9-6,14-11.9,21.3-17.6,12.4-9.6,25-18.9,37.6-28.3,2.4-1.8,5-3.5,7.9-5.6-.9,5-2.2,8.7-6.4,11.8-14.3,10.4-28.2,21.4-42.2,32.2-7.1,5.5-14,11.1-21,16.6-.9.7-1.8,1.3-3.3,2.3Z"/>
      <path class="cls-1" d="M480.4,265.6c-2.6-3-1.9-4.8,1.2-7,8.7-6.1,17.1-12.6,26.4-19.5,3.4,4.4,7,9,10.8,13.9-11.1,7.8-21.5,15.1-32.2,22.6-1-1.2-2.1-2.5-3.6-4.3,4.1-3.1,8-6.2,12.1-9.2,3.8-2.8,7.7-5.5,11.5-8.3,1-.8,2.3-1.6,2.8-2.7.5-1,0-2.4,0-3.6-1.1,0-2.4-.3-3.1.2-7.4,5-14.8,10.1-22.1,15.3-1.3.9-2.5,1.8-3.7,2.7Z"/>
      <path class="cls-1" d="M248.3,146.2c-4.1,3.7-7.7,6.8-11.1,10-11.3,10.5-22.6,21.1-33.9,31.6-.7.6-2.1.9-3,.7-2.5-.5-5-1.3-8.1-2.2,3.5-3,6.8-5.7,10-8.5,7.3-6.4,14.6-12.7,21.9-19.1,3.2-2.8,6-6.2,9.4-8.7,2-1.5,5-1.9,7.6-2.5,2-.5,4.1-.7,7.3-1.2Z"/>
      <path class="cls-1" d="M107.1,310.4c-4.9,5.7-9.3,11.9-14.8,16.9-13.9,12.6-28.3,24.7-42.5,36.9-.5.4-1.1.9-2.3,1.1.7-3.6,1.3-7.2,2.1-10.8.1-.5.6-1,1-1.3,7.4-5.9,14.9-11.8,22.4-17.7,11-8.7,22-17.4,33.1-26.2.4.4.8.7,1.1,1.1Z"/>
      <path class="cls-1" d="M522.4,263.8c-10.1,7-20,14-30.2,21.1-.9-1.5-1.9-3.2-2.6-4.5,10.8-7.7,21.2-15.2,32.1-23.1,2.8,4.9,5.4,9.7,8,14.3-11.8,8.2-23.3,16.2-35.2,24.5-.6-3.8.9-6.1,3.4-7.9,7.4-5.5,14.9-10.9,22.2-16.4,2.3-1.8,4.9-3.6,2.4-8Z"/>
      <path class="cls-1" d="M482.2,553c1.7-2,3.3-3.9,5-5.9.4-.4,1-.8,1.1-1.3,2.3-8.2,9.7-11.3,15.7-15.8,10.6-8.1,21.4-15.9,32.1-23.8.5-.3,1-.6,1.9-.6-3.8,5.6-4.9,12.8-11,17.1-14,9.8-28,19.6-42,29.4-.8.5-1.6,1-2.3,1.5l-.5-.5Z"/>
      <path class="cls-1" d="M237.6,551.1c4.1-.5,8.3-.9,12.9-1.4-1.6,17.2,1.7,33.1,9.8,48-13.4-6.9-21.1-25-22.7-46.6Z"/>
      <path class="cls-1" d="M371,551.2c-2.3,18.2-6.2,35-22,46.2,6.7-15.1,11.7-30.5,8.5-47.8,4.8.6,9,1.1,13.5,1.7Z"/>
      <path class="cls-1" d="M453.7,562.3c-35.3,30-75.3,53.4-111.9,81.5-1.1.8-2.9.7-4.6.4,3.4-2.4,6.8-4.8,10.1-7.2,22.1-15.8,44.3-31.4,66.1-47.5,11.4-8.4,22.2-17.5,33.1-26.6,2.6-2.1,4.6-2.2,7.1-.6Z"/>
      <path class="cls-1" d="M312.7,141.2c-2.6,2.2-5.1,4.4-7.7,6.5-6.9,5.7-13.8,11.4-20.8,17-1.7,1.4-3.9,2.2-5.5,3.6-2.2,1.9-4.2,4.2-6.3,6.3-2-1.3-4.3-2.8-7.1-4.7,5.2-4.3,10.3-8.6,15.4-12.9,5.2-4.3,10.7-8.2,15.5-12.8,3.2-3.1,6.7-4.1,10.8-4,1.8,0,3.5,0,5.3,0,.1.3.3.5.4.8Z"/>
      <path class="cls-1" d="M46,389.6q-.5-5.7-2.6-6.9c6.2-10.8,16.4-17.8,25.2-26.1,3.1-2.9,6.3-5.7,9.9-8.9-2.2,4.5-4.1,8.4-5.9,12.4-.7,1.6-1.6,3.3-1.6,5-.2,4.8-3.2,7.4-6.7,10.1-6.2,4.6-12.2,9.5-18.4,14.5Z"/>
      <path class="cls-1" d="M216.1,183.9c5.3-5,10.6-10.3,16.1-15.4,7.5-7,15.3-13.7,22.7-20.8,4.1-4,9.1-4.4,14.7-4.5-3.8,3.3-7.4,6.7-11.3,9.9-6.1,5.1-12.5,9.8-18.3,15.1-2.3,2.1-4,5.3-5,8.3-1.6,4.6-2.4,5.1-7.2,5.3-4,.2-8,1.4-11.8,2.1Z"/>
      <path class="cls-1" d="M166.9,255.5c-3.5,0-6.8,0-10.1,0-1.3,0-2.6.6-3.8.5-.9,0-2.4-.4-2.7-1-.4-.9-.2-2.5.4-3.2,9.3-9.1,19.3-16.8,33.2-16.4,1,0,2.1.3,3.3.4-7.1,6.8-14,13.4-20.3,19.6Z"/>
      <path class="cls-1" d="M413.7,623.2c25.9-18.4,51.8-36.9,77.7-55.3.3.4.6.8.9,1.2-22.8,22.8-49.1,40.6-78.5,54.1Z"/>
      <path class="cls-1" d="M422.8,235.6c5.9-.5,13,.3,19.2,4.5,5.3,3.5,10.1,7.7,15.1,11.7.8.6.8,2.2,1.2,3.3-1.1.4-2.3,1-3.4,1-1.4,0-2.8-.7-4.1-.7-2.9,0-5.9.2-8.1.4-6.7-6.8-13.4-13.7-19.7-20.2Z"/>
      <path class="cls-1" d="M496.8,229.5c-8.3,5.5-16.5,10.9-24.9,16.5-1.1-1.1-2.4-2.3-4.1-3.8,8.6-5.9,16.8-11.7,25.1-17.2.6-.4,2.6.1,3.2.8,2.9,3.1,5.6,6.4,8.5,9.8-9.4,6.4-18.5,12.7-27.6,18.9-3-2.6-3-3.1.1-5.2,6.1-4.3,12.1-8.6,18.1-13,2.1-1.6,4.4-3.3,1.5-6.8Z"/>
      <path class="cls-1" d="M504.8,521.1c1.5-3.8,2.8-7.1,4.1-10.4.3-.8,1-1.6,1.7-2.2,12.8-9.6,25.7-19.2,39-29.1-3,6.2-3.7,12.7-10.2,16.9-11.8,7.5-22.9,16.3-34.6,24.8Z"/>
      <path class="cls-1" d="M357.6,146.1c-13,8.9-25.4,17.3-37.6,25.6-1.9-2.2-3.3-3.7-5-5.6,1.2-1,2.3-2.1,3.6-3,6.6-4.5,13.3-9,19.9-13.5,2.9-2,5.7-4.3,8.6-6.2.8-.5,2.2,0,3.3.2,2,.6,4,1.3,7.1,2.4Z"/>
      <path class="cls-1" d="M295.2,163.9c5.6-4.8,12.2-10.5,18.8-16.1,3.1-2.6,3.1-2.5,2.7-7,7.3.4,14.4.8,21.6,1.2.1.3.2.5.3.8-1,.6-2.1,1.2-3,1.8-8.5,5.7-17,11.4-25.6,17.1-.7.5-1.5,1.2-2.4,1.3-4.4.4-8.9.7-12.5.9Z"/>
      <path class="cls-1" d="M57.5,471.6q-3.6-8.9,3.3-14.4c6-4.7,12-9.5,17.7-14.1,2.5,1.1,4.6,2.1,7,3.2.5,2.9-.3,4.8-3.5,6.8-7.3,4.6-13.9,10.1-20.8,15.3-1.2.9-2.3,1.9-3.7,3.1Z"/>
      <path class="cls-1" d="M435.2,217.1c.5-4.3.9-8.5,1.5-12.7.1-.8.8-1.7,1.4-2.2,5.5-3.9,11.1-7.7,16.7-11.4.7-.4,2.1-.5,2.7-.1,2.7,1.8,5.3,3.9,8.1,5.9-10.4,7-20.5,13.8-30.4,20.4Z"/>
      <path class="cls-1" d="M49.7,440.9c-.5-3.4-1.1-6.2-1.4-9,0-.9.3-2.2,1-2.8,8.1-6.6,16.4-13.2,24.6-19.7.3-.2.6-.2.6-.2,0,3.2.1,6.5,0,9.8,0,1.1-.7,2.5-1.6,3.2-7.5,6.1-15,12.2-23.2,18.7Z"/>
      <path class="cls-1" d="M334,175.8c-.5-1.5-1-2.8-1.5-4.2,6.6-4.8,13.1-9.4,19.5-14.2,4.1-3,8-6.2,12-9.2.7-.5,1.8-.8,2.5-.6,2.5.6,4.9,1.5,8.1,2.6-12.7,10.6-27.2,16.9-40.7,25.7Z"/>
      <path class="cls-1" d="M375.4,182.8c-1.5-4.9-.2-7.3,3.4-9.3,7.1-4.1,13.8-8.7,20.7-12.9.9-.6,2.5-.7,3.5-.3,2.1.7,4.1,1.8,6.4,3-.7.6-1.2,1.1-1.7,1.4-8.3,5.3-16.6,10.8-25.1,15.9-2.1,1.2-4.7,1.5-7.2,2.3Z"/>
      <path class="cls-1" d="M450.5,584.3c23.2-16.5,46.4-32.9,69.7-49.4-5.1,7.7-10,15.1-19,19.2-8.3,3.7-15.6,9.6-23.3,14.6-8.4,5.4-16.8,10.9-25.2,16.4-.4.2-.8.3-1.3.5-.3-.4-.6-.8-.9-1.2Z"/>
      <path class="cls-1" d="M65.3,496.2c-.6-2.7-1.2-4.7-1.8-7.4,8.4-6.6,17.2-13.6,26.3-20.8.3,3.3.7,6.4.8,9.5,0,.7-.8,1.6-1.5,2.1-6.7,5-13.4,10-20.2,14.9-1.1.8-2.6,1.2-3.6,1.7Z"/>
      <path class="cls-1" d="M240.1,639.8c6.8-10.9,17.4-16.2,26.7-23.4,1,2.5,1.8,4.5,2.6,6.6-6.7,5.8-13.1,11.9-20.3,17.1-1.9,1.4-6-.1-9-.3Z"/>
      <path class="cls-1" d="M78.1,394.5c-.3,4.1-2.2,6.5-5.2,8.7-8.5,6.3-16.8,12.9-25.2,19.4-1.9-4.1-1.4-6.4,1.8-9.1,7.1-6,14.3-12,21.1-18.3,2.7-2.5,4.7-2.2,7.4-.7Z"/>
      <path class="cls-1" d="M69.1,379.2c.6,2.2,1.3,4.3,1.7,6.4.1.8-.4,2-1.1,2.6-7.6,6.7-15.3,13.3-23.7,20.5,0-3.9,0-7.1,0-10.4,0-.7.6-1.6,1.1-2,7-5.7,14-11.2,21-16.8.2-.2.6-.3.9-.4Z"/>
      <path class="cls-1" d="M533.8,417.2c-1.1-5.3,1-8.5,5.3-11.3,8.2-5.5,16-11.6,24.6-17.8.1,3.1.3,5.6.3,8.1,0,.7-.5,1.6-1.1,2-9.6,6.4-19.3,12.7-29.1,19Z"/>
      <path class="cls-1" d="M532.6,403.2c-.5-.5-.6-.6-.6-.7-1.4-5.9-1.3-5.9,3.5-9.3,8.2-5.8,16.3-11.7,24.4-17.5.8-.6,1.7-1.1,2.9-1.9.3,1.5.5,2.7.7,4,.5,2.3-.2,3.7-2.4,5.1-8.3,5.6-16.3,11.6-24.4,17.5-1.3.9-2.7,1.8-4.1,2.8Z"/>
      <path class="cls-1" d="M554.2,462.7c-.6,5.1-2.3,8.7-6.7,11.7-11.2,7.7-21.8,16.1-32.7,24.3-.4.3-.7.5-1.4,1,0-4,1.3-6.6,4.3-8.9,11.7-9,23.3-18.1,35-27.2.4-.3,1-.6,1.6-1Z"/>
      <path class="cls-1" d="M529.3,347.4q-4.1-6.4,1.7-10.6c6.3-4.4,12.5-8.8,18.8-13.2.7-.5,1.4-.8,2.3-1.2.8,2.3,1.6,4.3,2.2,6.5.1.5-.2,1.5-.6,1.8-8.1,5.6-16.3,11.2-24.4,16.8Z"/>
      <path class="cls-1" d="M53,455.7c-2.3-10.2-3.1-7.4,4.6-13.6,4.7-3.7,9.5-7.4,14.3-11,1-.8,2.1-1.4,3.4-2.4.5,2.7,1,5,1.3,7.3,0,.6-.3,1.4-.7,1.8-7.5,5.9-15,11.8-22.9,17.9Z"/>
      <path class="cls-1" d="M474.1,559.8c-23.2,16.8-46.4,33.6-69.6,50.4-.3-.3-.5-.7-.8-1,3.3-2.7,6.5-5.6,9.9-8.2,17.1-12.9,34.1-25.7,51.3-38.6,1.8-1.3,3.7-2.6,5.7-3.6.9-.5,2.1-.3,3.2-.4,0,.5.2.9.3,1.4Z"/>
      <path class="cls-1" d="M393.6,157.1c-7,4.5-14.1,9-21.1,13.5-2.1-2-4.2-4-6.7-6.3,2.6-2,5.5-4.2,8.2-6.4,1.8-1.5,3.3-3.2,5-4.8.5-.5,1.4-1,2-.9,4.3,1.2,8.5,2.5,12.7,3.8,0,.4,0,.7-.1,1.1Z"/>
      <path class="cls-1" d="M531.9,434.3c0,.2,0,0,0,0-.1-6.4,3-10.4,8.4-13.7,7.8-4.8,15.1-10.4,22.7-15.7,1.4,5.8,1,6.6-3.4,9.7-9.3,6.5-18.6,13.2-27.8,19.8Z"/>
      <path class="cls-1" d="M538,384c-1.3-6.5,3.1-9.9,7.8-13.4,5-3.6,9.9-7.6,15.1-11.6.2,1.2.5,2,.6,2.9.2,1.9.8,3.2,3.1,2.8,2-.4,3.3.7,2.9,2.4-.2.9-2,1.7-3.3,2.1-2.1.7-4.7.5-6.5,1.6-6.8,4.2-13.3,8.8-19.7,13.1Z"/>
      <path class="cls-1" d="M247.8,611.8c1.6,2.1,2.9,3.8,4.4,5.8-3.4,2.8-6.7,5.6-9.9,8.4-2.9,2.6-6,5-8.5,8-2.1,2.6-4.1,2.4-6.7,1.4-1.1-.5-2.2-.8-4.3-1.5,8.6-7.6,16.6-14.7,25-22.1Z"/>
      <path class="cls-1" d="M179.7,570.9c1.3,1.5,2.4,2.8,3.8,4.5-5.2,4.3-10.3,8.6-15.4,12.8-4.1,3.4-8.3,6.6-12.2,10.2-2.3,2.1-3.5,0-5.1-.6.5-1.1.7-2.6,1.6-3.4,8.4-7.4,16.9-14.7,25.4-22,.6-.5,1.3-1,2.1-1.6Z"/>
      <path class="cls-1" d="M562.2,420.3c.4,3.5-.2,5.8-3.8,8.2-11.4,7.7-22.4,16.1-33.5,24.2-.6.5-1.3.9-2.3,1.5v-7c13.5-6.2,24-16.5,35.8-24.9,1-.7,1.9-1.4,2.9-2,.2-.1.4,0,.9,0Z"/>
      <path class="cls-1" d="M557.7,447.4c.2,4.4-1.5,6.9-5.2,9.5-11.7,8-22.8,16.7-34.2,25.1-.4.3-.7.5-1.4,1-.4-3.9.4-6.4,3.8-8.7,9.4-6.4,18.3-13.4,27.4-20.1,3.1-2.3,6.3-4.4,9.6-6.7Z"/>
      <path class="cls-1" d="M451.5,186.6c-6.1,3.8-11.6,7.4-17,10.8-2.3-2.9-4.4-5.7-6.9-8.9,3.9-2.6,7.9-5.5,12.1-8.2.6-.4,1.9,0,2.6.3,2.9,1.8,5.7,3.7,9.2,6Z"/>
      <path class="cls-1" d="M189.4,620c9.6-8.7,18.9-17.3,28.4-25.9,2.4,3.2,2.9,5.1-.2,7.6-6.9,5.8-13.5,12.1-20.1,18.3-3.6,3.3-3.5,3.4-8.2,0Z"/>
      <path class="cls-1" d="M379.1,605.3c-17.6,13.1-35.2,26.3-52.8,39.4-.2-.2-.3-.3-.5-.5,1.3-1.3,2.5-2.7,3.8-4,1.3-1.3,2.6-2.7,4.1-3.9,6.9-5.7,13.9-11.3,20.8-17,.2-.1.4-.3.6-.4,5.5-7,14.7-8.6,21-14.5.5-.5,1.8-.2,2.7-.3.2.4.3.8.5,1.1Z"/>
      <path class="cls-1" d="M421.9,169.8c-8.3,5.5-16.4,11-24.6,16.3-.7.4-2.1,0-3-.4-1.2-.6-2.3-1.6-3.9-2.8,6.7-4.5,13.2-8.7,19.6-13,.2-.1.4-.2.6-.4,3.6-3.8,7.2-3.4,11.3.3Z"/>
      <path class="cls-1" d="M253,166.1c1.2-1.3,2-2.4,3-3.3,8.2-6.9,16.2-14.1,24.7-20.6,2.1-1.6,5.7-1.4,8.7-2,.2.3.4.6.6.9-2.4,2-4.9,4-7.3,6-7.2,5.9-14.6,11.6-21.6,17.6-2.5,2.1-4.7,2.4-8,1.2Z"/>
      <path class="cls-1" d="M518.1,469.5c-2.2-3.6.4-4.6,2.4-6.1,13.3-10,26.5-20.2,40.1-30.5-.3,3.8-.6,6.4-4.3,8.9-11.3,7.5-22.1,15.8-33.1,23.8-1.7,1.2-3.4,2.5-5.1,3.9Z"/>
      <path class="cls-1" d="M164.2,607c-1.1-.8-2.2-1.7-4-3.1,10.4-8.8,20.4-17.4,30.8-26.2.7,2.1,1.3,3.6,1.7,4.8-9.5,8.2-18.9,16.2-28.5,24.5Z"/>
      <path class="cls-1" d="M78.6,519.2c-1.6-2.4-2.9-4.4-4.4-6.8,6.4-5,12.7-9.8,19.5-15.1.8,2.8,1.4,5,1.9,7.3.1.5-.2,1.5-.7,1.8-5.3,4.2-10.7,8.4-16.3,12.8Z"/>
      <path class="cls-1" d="M486.4,215.5c1.4,1.6,2.8,3.2,4.1,4.6-8.9,5.9-17.8,11.9-26.9,17.9-1.2-1-2.5-2.2-4-3.6,8.8-6.3,17.6-12.5,26.7-19Z"/>
      <path class="cls-1" d="M474.1,204.3c-7.9,5.3-15.6,10.2-23.1,15.5-3.1,2.2-5.6,2.3-8.7-.5,8.7-6.1,17.4-12.2,26.1-18.1.6-.4,1.9-.1,2.6.3,1.1.6,1.9,1.7,3.1,2.8Z"/>
      <path class="cls-1" d="M558.2,346.2c2.9,5.4,2.7,6.1-1.7,9.3-6,4.4-11.9,8.9-17.9,13.3-2.7-6.1-2.8-6.2,2.4-10.1,5.7-4.3,11.4-8.3,17.2-12.5Z"/>
      <path class="cls-1" d="M435,176.9c-4.4,2.9-8.7,6.1-13.2,8.7-1.9,1.1-4.7.4-6.8,1.2-4.9,2-9.5,4.4-15.3,7.1,1.1-1.6,1.6-2.7,2.4-3.3,7-5,14-10,21.2-14.7,5.1-3.4,7.5-3,11.6,1Z"/>
      <path class="cls-1" d="M86.4,457.2c.7.9,1.2,1.5,1.6,2,.5.7.8,1.4,1.1,1.9-9.3,7.2-18.4,14.3-27.6,21.4-2.7-4.3-2.5-4.8,1.2-7.6,7-5.3,13.8-10.6,20.8-15.9.8-.6,1.8-1.1,2.9-1.9Z"/>
      <path class="cls-1" d="M482,212c-8.8,6-17.7,12.1-26.7,18.2-.9-1.3-1.9-2.6-2.9-4.1,7-5,14-9.9,21.1-14.8.6-.4,1.2-.8,1.8-1.2,3.7-2.6,4-2.6,6.8,1.9Z"/>
      <path class="cls-1" d="M129.9,581.1c-1.5-1.7-2.6-3-4.1-4.6,3.8-3.5,7.4-6.9,11.1-10.3.6-.6,1.3-1.1,1.9-1.6q4.9-4.2,12.3-2.9c-7.2,6.6-14.1,12.9-21.2,19.4Z"/>
      <path class="cls-1" d="M176,559.5c1.3,3.4.2,5.7-2.5,8-9.7,8.2-19.3,16.7-29.1,25.3-.4-.4-1.3-1.1-2.4-2.1,11.4-10.4,22.7-20.7,34.1-31.2Z"/>
      <path class="cls-1" d="M224.5,603.6c2.5.3,4.5.6,6.8.8-8.6,7.7-17.2,15.3-26,23.2-.8-.4-2.1-1-4.3-1.9,8.1-7.6,15.9-15,23.5-22.1Z"/>
      <path class="cls-1" d="M534.5,355.9c-.6-.8-1.4-1.8-2.3-2.9,7.9-5.7,15.5-11.3,23.4-17,.6,4.1,1.2,3.2,1.3,3.7.2.9,1.8,2.3.9,2.6s-2.5,0-3.5.6c-6.5,4.2-13,8.5-19.9,13.1Z"/>
      <path class="cls-1" d="M179.7,614.9c7.9-7.7,15.3-15.1,22.8-22.5.5-.5,1.6-.7,2.4-.6,1.3,0,2.5.4,4,.6-.6.7-1.2,1.5-1.9,2.2-7.5,7.2-15,14.4-22.5,21.6-2.9,2.8-3.3-.7-4.9-1.3Z"/>
      <path class="cls-1" d="M243.4,607c-9.1,8-18.2,16-27.8,24.5-.9-.4-2.3-1-4.8-2,11.6-7.1,18.9-19,31.8-23.3.2.3.5.6.7.9Z"/>
      <path class="cls-1" d="M308.2,646.9c9.9-12.2,24-18.8,34.8-29.5,2.2,1.1.3,2.1-.7,3-6.8,6.2-13.6,12.4-20.5,18.6-1.4,1.3-3,2.4-4,4-2.1,3.6-5.2,4.4-9.6,3.9Z"/>
      <path class="cls-1" d="M381.9,633.9c14.3-9.5,28.7-19,43-28.5.3.5.7,1,1,1.5-14.3,9.6-26.6,22.2-43.4,27.9-.2-.3-.4-.6-.6-.9Z"/>
      <path class="cls-1" d="M98.5,511.2c.8,2.6,1.5,4.7,2.1,6.6-5.4,4.4-10.5,8.5-15.6,12.7q-2.9-4.7,1.1-8.2c4-3.6,8.1-7.2,12.4-11.1Z"/>
      <path class="cls-1" d="M355.4,640.5c13.1-8.5,26.3-16.9,39.4-25.4.2.3.4.6.6.9-3.5,2.6-7,5.2-10.5,7.8-5.5,4.2-11.3,8.1-16.5,12.6-3.7,3.2-7.9,4.4-12.3,5.3-.3-.4-.5-.8-.8-1.2Z"/>
      <path class="cls-1" d="M112.4,529.1c2,4.2,1.2,6.6-2.4,9-4.2,2.7-7.8,6.4-11.9,9.8-1-1.2-2-2.5-3.3-4.1,5.8-4.9,11.6-9.6,17.6-14.6Z"/>
      <path class="cls-1" d="M279.2,626.9c-5.2,5.8-9.7,10.7-14.2,15.7-.4.4-1,.9-1.5.9-3.3-.4-4.9,1.2-5.5,4.4-1-3.8-.9-6.8,2.7-9.3,5.1-3.4,9.8-7.4,14.7-11,.7-.5,2-.4,3.7-.7Z"/>
      <path class="cls-1" d="M106,556.8c-1.2-1.6-2.3-3-3.5-4.6,4.9-4.2,9.7-8.4,14.8-12.8.8,2.1,1.5,4.1,2.2,5.9-4.5,3.9-9,7.6-13.6,11.5Z"/>
      <path class="cls-1" d="M90.6,487.2c1.9,2.9.5,4.3-1.5,5.8-5.7,4.3-11.3,8.7-17,13.1-2.4-2.7-2.4-3.1.5-5.3,4.9-3.8,9.9-7.6,14.9-11.4,1-.8,2.1-1.4,3.2-2.1Z"/>
      <path class="cls-1" d="M135.8,557.5c-5.1,4.8-10.2,9.6-15.4,14.4-4.8-4.1-4.3-3.4-.2-7.2,2.2-2.1,4.4-4.3,6.6-6.3.6-.5,1.5-.9,2.4-.9,1.9-.1,3.9,0,6.6,0Z"/>
      <path class="cls-1" d="M272.9,644.4c5.7-4.7,11.4-9.5,17.5-14.5.8.9,1.7,1.7,2.6,2.8-4.3,4.2-8.1,8.5-12.5,12.1-1.6,1.3-4.4.9-6.7,1.3-.3-.5-.5-1.1-.8-1.6Z"/>
      <path class="cls-1" d="M305.6,637.4c-6.3,9.7-8.8,10.9-17.1,8.6,4.1-3.3,7.7-6.6,11.7-9.3,1-.7,3.2.4,5.4.7Z"/>
      <path class="cls-1" d="M104.1,523.8c2.1,1.8,2.2,3.2-.2,5-4.1,3.1-7.9,6.7-11.8,10-2.2-2.2-2.8-3.8.3-5.9,4.1-2.7,7.8-6.1,11.7-9.2Z"/>
      <path class="cls-1" d="M189.7,595.4c-5.4,5.6-10.7,11.2-16.4,17.1-1-.8-2.1-1.7-3.5-2.9,6.7-5.1,13.1-9.9,19.5-14.8.1.2.3.4.4.6Z"/>
      <path class="cls-1" d="M143.8,579.6c2.5-5.5,16.6-18.1,21.9-19.1-2.3,2.2-4.4,4.4-6.8,6.5-2.5,2.2-5.1,4.2-7.6,6.3-2.5,2.1-5,4.2-7.5,6.3Z"/>
      <path class="cls-1" d="M113.1,564.6c-1.2-1.4-2-2.3-3-3.5,4.3-3.5,8.4-6.9,12.5-10.2.3.3.5.5.8.8-1.2,5.8-6.9,8.1-10.3,13Z"/>
      <path class="cls-1" d="M400.3,591.6c-4.7,3.2-8.9,6.1-13.5,9.2,1.3-5,1.7-5.9,5.3-6.7,2.7-.6,3.9-5.6,8.1-2.5Z"/>
      <path class="cls-1" d="M439.2,559.9c-2.8,2.6-5.4,4.9-8,7.4.4-3.4.7-6.8,1.1-10.6,2.3,1.1,4.5,2.1,6.9,3.2Z"/>
      <path d="M408.3,299c-.3-1.6-.2-3.4-.8-4.8-4.2-9.3-11.6-14.3-21.6-15.6-9.9-1.3-18.7,1.7-26.6,7.5-1.5,1.1-3.3,2.9-4.6.5-.6-1.1,0-3.9,1-4.9,19.1-18.7,46.5-13.8,58.2,8.1,1.7,3.1,2.5,6.9,3.1,10.4.8,4.5-2.8,7.3-7.3,7-6.7-.5-11.2-3.9-14.4-9.4-1.1-1.9-1.6-3.9.6-5.3,2.2-1.5,4.3-1,6,1,1.8,2,3.5,4.1,5.2,6.2.5-.2.9-.5,1.4-.7Z"/>
      <path d="M202.2,300.6c.8-1.4,1.6-2.9,2.5-4.2,1-1.3,2-2.9,3.3-3.6,1.3-.6,3.5-.8,4.7-.1.9.6,1.4,3.1.9,4.3-2.5,5.5-6.8,9-12.8,10-1.6.3-3.3.6-4.9.4-3.3-.6-5.6-4.4-4.8-7.9,3.1-13.9,11.3-23.4,25-27.6,14-4.2,26-.3,36.3,9.6.6.6,1.4,1.3,1.4,2,0,1.1,0,2.6-.7,3.3-.4.5-2.1.5-2.9.1-4.1-2.1-7.9-4.9-12.1-6.6-12.5-5-29.9-1.4-36.8,12.5-1,1.9-1.2,4.2-1.7,6.3.8.5,1.6,1,2.4,1.6Z"/>
      <path d="M237.9,251.6c8.7.6,15.8,4.1,21.6,10.4,1.5,1.6,2.4,3.3.7,5.3-1.9,2.4-3.7.9-5.2-.3-7-5.9-14.7-8-23.8-5.7-1.4.4-4-1.3-4.9-2.7-.5-.8,1.1-3.9,2.4-4.5,2.8-1.3,6-1.7,9.1-2.5Z"/>
      <path d="M371.2,251.6c2.8.7,5.8,1.1,8.4,2.4,1.2.6,2.4,3,2.2,4.4-.2,2.4-2.4,3.5-4.8,3-9.2-2.2-17.3-.2-24.4,5.9-1.5,1.3-3.7,2.2-4.8,0-.6-1.3-.4-3.9.6-4.9,6-6.8,13.6-10.3,22.8-10.7Z"/>
      <path d="M358.6,429.7c-.7.9-1.4,2.3-2.4,2.7-1.1.5-2.9.4-3.9-.2-2.1-1.3-3.8-3.2-5.8-4.6-2.5-1.8-5.3-3.1-7.6-5.1-1-.8-2.1-3-1.7-3.8.5-1.1,3.1-2.5,3.7-2.1,5.7,3.6,11.2,7.6,16.8,11.5.3.2.4.8.7,1.6Z"/>
      <path d="M253.2,433.5c-1.2-1-2.8-1.8-3.2-2.9-.3-1,.3-3,1.2-3.6,4.5-3.4,9.2-6.5,13.9-9.7,2-1.3,4-1.5,5.5.9,1.6,2.6-.2,3.8-2.1,5-3.7,2.5-7.3,5.2-10.9,7.7-1.2.9-2.6,1.6-4.3,2.6Z"/>
      <path d="M267.7,525.5c0-4.1.8-4.8,4.4-4.5.6,3.9-.2,4.7-4.4,4.5Z"/>
      <path d="M341.4,524.6c-3.5,1.4-5,.3-5.3-2,0-.7,1.1-1.5,1.6-2.2,1.2,1.4,2.5,2.8,3.7,4.2Z"/>
      <path d="M405.6,389.8v-4.2c.8.2,2.2.4,2.2.6,0,1.3-.3,2.5-.5,3.8-.6,0-1.1-.1-1.7-.2Z"/>
      <path d="M204.5,387c-1.2,1.1-2,1.8-2.8,2.5-.5-.7-1.5-1.4-1.4-1.9.2-.8,1-1.7,1.7-2.1.3-.2,1.3.8,2.4,1.6Z"/>
      <path d="M145.2,473c-1.9,1.3-2.9,2.3-4,2.5-.8.1-1.8-1-2.7-1.5.9-1.1,1.6-2.5,2.7-3,.6-.3,2,1,4,2.1Z"/>
      <path d="M143.1,460.9c1.4-3.2,2.7-5.9,3.9-8.6,1.6,3.7-.6,8.3-3.9,8.6Z"/>
      <path d="M459.3,452.8c3.2.7,5.2,5.2,4.2,9.3-2.6-2.8-3.1-6-4.2-9.3Z"/>
      <path d="M466.7,476.9c-1.1-1.8-2.2-2.8-2.3-3.9,0-.6,1.6-2.1,2.2-1.9,1.1.3,2.4,1.4,2.7,2.4.2.7-1.2,1.8-2.5,3.5Z"/>
    </g>
  </g>
</svg>